<svg width="418" height="422" viewBox="0 0 418 422" fill="none" xmlns="http://www.w3.org/2000/svg">
<path fill-rule="evenodd" clip-rule="evenodd" d="M205.5 410C310.158 410 395 325.158 395 220.5C395 115.842 310.158 31 205.5 31C100.842 31 16 115.842 16 220.5C16 325.158 100.842 410 205.5 410Z" fill="#FAF7F2"/>
<g filter="url(#filter0_d)">
<rect x="118" y="158" width="191" height="130.925" rx="12" fill="white"/>
</g>
<rect x="128" y="169" width="157" height="108.058" rx="9" fill="#95EAFF"/>
<circle cx="296" cy="225" r="5" fill="#EEEEEE"/>
<path d="M154.23 222.47C154.23 220.77 154.51 219.23 155.07 217.85C155.63 216.45 156.4 215.26 157.38 214.28C158.38 213.3 159.56 212.55 160.92 212.03C162.3 211.49 163.81 211.22 165.45 211.22C167.11 211.2 168.63 211.45 170.01 211.97C171.39 212.47 172.58 213.21 173.58 214.19C174.58 215.17 175.36 216.35 175.92 217.73C176.48 219.11 176.76 220.65 176.76 222.35C176.76 224.01 176.48 225.52 175.92 226.88C175.36 228.24 174.58 229.41 173.58 230.39C172.58 231.37 171.39 232.14 170.01 232.7C168.63 233.24 167.11 233.52 165.45 233.54C163.81 233.54 162.3 233.28 160.92 232.76C159.56 232.22 158.38 231.47 157.38 230.51C156.4 229.53 155.63 228.36 155.07 227C154.51 225.64 154.23 224.13 154.23 222.47ZM158.19 222.23C158.19 223.37 158.36 224.42 158.7 225.38C159.06 226.34 159.56 227.17 160.2 227.87C160.84 228.57 161.6 229.12 162.48 229.52C163.38 229.92 164.38 230.12 165.48 230.12C166.58 230.12 167.58 229.92 168.48 229.52C169.38 229.12 170.15 228.57 170.79 227.87C171.43 227.17 171.92 226.34 172.26 225.38C172.62 224.42 172.8 223.37 172.8 222.23C172.8 221.17 172.62 220.18 172.26 219.26C171.92 218.34 171.43 217.54 170.79 216.86C170.15 216.16 169.38 215.62 168.48 215.24C167.58 214.84 166.58 214.64 165.48 214.64C164.38 214.64 163.38 214.84 162.48 215.24C161.6 215.62 160.84 216.16 160.2 216.86C159.56 217.54 159.06 218.34 158.7 219.26C158.36 220.18 158.19 221.17 158.19 222.23ZM177.354 218.6H180.774V220.76H180.834C181.354 219.88 182.054 219.24 182.934 218.84C183.814 218.44 184.764 218.24 185.784 218.24C186.884 218.24 187.874 218.44 188.754 218.84C189.634 219.22 190.384 219.75 191.004 220.43C191.624 221.11 192.094 221.91 192.414 222.83C192.734 223.75 192.894 224.74 192.894 225.8C192.894 226.86 192.724 227.85 192.384 228.77C192.044 229.69 191.564 230.49 190.944 231.17C190.344 231.85 189.614 232.39 188.754 232.79C187.894 233.17 186.954 233.36 185.934 233.36C185.254 233.36 184.654 233.29 184.134 233.15C183.614 233.01 183.154 232.83 182.754 232.61C182.354 232.39 182.014 232.16 181.734 231.92C181.454 231.66 181.224 231.41 181.044 231.17H180.954V239.84H177.354V218.6ZM189.294 225.8C189.294 225.24 189.194 224.7 188.994 224.18C188.814 223.66 188.534 223.2 188.154 222.8C187.794 222.4 187.354 222.08 186.834 221.84C186.314 221.6 185.724 221.48 185.064 221.48C184.404 221.48 183.814 221.6 183.294 221.84C182.774 222.08 182.324 222.4 181.944 222.8C181.584 223.2 181.304 223.66 181.104 224.18C180.924 224.7 180.834 225.24 180.834 225.8C180.834 226.36 180.924 226.9 181.104 227.42C181.304 227.94 181.584 228.4 181.944 228.8C182.324 229.2 182.774 229.52 183.294 229.76C183.814 230 184.404 230.12 185.064 230.12C185.724 230.12 186.314 230 186.834 229.76C187.354 229.52 187.794 229.2 188.154 228.8C188.534 228.4 188.814 227.94 188.994 227.42C189.194 226.9 189.294 226.36 189.294 225.8ZM191.894 221.66V218.6H194.864V214.43H198.464V218.6H202.424V221.66H198.464V227.96C198.464 228.68 198.594 229.25 198.854 229.67C199.134 230.09 199.674 230.3 200.474 230.3C200.794 230.3 201.144 230.27 201.524 230.21C201.904 230.13 202.204 230.01 202.424 229.85V232.88C202.044 233.06 201.574 233.18 201.014 233.24C200.474 233.32 199.994 233.36 199.574 233.36C198.614 233.36 197.824 233.25 197.204 233.03C196.604 232.83 196.124 232.52 195.764 232.1C195.424 231.66 195.184 231.12 195.044 230.48C194.924 229.84 194.864 229.1 194.864 228.26V221.66H191.894ZM202.647 218.6H206.247V233H202.647V218.6ZM202.137 213.71C202.137 213.13 202.347 212.63 202.767 212.21C203.207 211.77 203.757 211.55 204.417 211.55C205.077 211.55 205.627 211.76 206.067 212.18C206.527 212.58 206.757 213.09 206.757 213.71C206.757 214.33 206.527 214.85 206.067 215.27C205.627 215.67 205.077 215.87 204.417 215.87C203.757 215.87 203.207 215.66 202.767 215.24C202.347 214.8 202.137 214.29 202.137 213.71ZM207.553 218.6H210.973V220.85H211.033C211.353 220.17 211.863 219.57 212.563 219.05C213.283 218.51 214.243 218.24 215.443 218.24C217.703 218.24 219.203 219.13 219.943 220.91C220.463 219.99 221.113 219.32 221.893 218.9C222.673 218.46 223.603 218.24 224.683 218.24C225.643 218.24 226.453 218.4 227.113 218.72C227.773 219.04 228.303 219.48 228.703 220.04C229.123 220.6 229.423 221.26 229.603 222.02C229.783 222.76 229.873 223.56 229.873 224.42V233H226.273V224.84C226.273 224.4 226.233 223.98 226.153 223.58C226.073 223.16 225.933 222.8 225.733 222.5C225.533 222.18 225.263 221.93 224.923 221.75C224.583 221.57 224.143 221.48 223.603 221.48C223.043 221.48 222.563 221.59 222.163 221.81C221.783 222.01 221.463 222.29 221.203 222.65C220.963 222.99 220.783 223.39 220.663 223.85C220.563 224.29 220.513 224.74 220.513 225.2V233H216.913V224.42C216.913 223.52 216.723 222.81 216.343 222.29C215.963 221.75 215.333 221.48 214.453 221.48C213.853 221.48 213.343 221.58 212.923 221.78C212.523 221.98 212.183 222.25 211.903 222.59C211.643 222.93 211.453 223.32 211.333 223.76C211.213 224.2 211.153 224.66 211.153 225.14V233H207.553V218.6ZM244.27 233H240.85V230.69H240.79C240.45 231.41 239.93 232.04 239.23 232.58C238.53 233.1 237.58 233.36 236.38 233.36C235.42 233.36 234.6 233.21 233.92 232.91C233.26 232.59 232.72 232.17 232.3 231.65C231.88 231.11 231.58 230.5 231.4 229.82C231.22 229.14 231.13 228.43 231.13 227.69V218.6H234.73V225.89C234.73 226.29 234.75 226.74 234.79 227.24C234.83 227.72 234.93 228.18 235.09 228.62C235.27 229.04 235.53 229.4 235.87 229.7C236.23 229.98 236.73 230.12 237.37 230.12C237.97 230.12 238.47 230.02 238.87 229.82C239.29 229.62 239.63 229.35 239.89 229.01C240.17 228.67 240.37 228.28 240.49 227.84C240.61 227.4 240.67 226.94 240.67 226.46V218.6H244.27V233ZM253.36 222.59C252.66 221.61 251.72 221.12 250.54 221.12C250.06 221.12 249.59 221.24 249.13 221.48C248.67 221.72 248.44 222.11 248.44 222.65C248.44 223.09 248.63 223.41 249.01 223.61C249.39 223.81 249.87 223.98 250.45 224.12C251.03 224.26 251.65 224.41 252.31 224.57C252.99 224.71 253.62 224.94 254.2 225.26C254.78 225.56 255.26 225.98 255.64 226.52C256.02 227.06 256.21 227.8 256.21 228.74C256.21 229.6 256.02 230.33 255.64 230.93C255.28 231.51 254.8 231.98 254.2 232.34C253.62 232.7 252.96 232.96 252.22 233.12C251.48 233.28 250.74 233.36 250 233.36C248.88 233.36 247.85 233.2 246.91 232.88C245.97 232.56 245.13 231.98 244.39 231.14L246.79 228.89C247.25 229.41 247.74 229.84 248.26 230.18C248.8 230.5 249.45 230.66 250.21 230.66C250.47 230.66 250.74 230.63 251.02 230.57C251.3 230.51 251.56 230.41 251.8 230.27C252.04 230.13 252.23 229.96 252.37 229.76C252.53 229.54 252.61 229.29 252.61 229.01C252.61 228.51 252.42 228.14 252.04 227.9C251.66 227.66 251.18 227.47 250.6 227.33C250.02 227.17 249.39 227.03 248.71 226.91C248.05 226.77 247.43 226.56 246.85 226.28C246.27 225.98 245.79 225.57 245.41 225.05C245.03 224.53 244.84 223.81 244.84 222.89C244.84 222.09 245 221.4 245.32 220.82C245.66 220.22 246.1 219.73 246.64 219.35C247.18 218.97 247.8 218.69 248.5 218.51C249.2 218.33 249.91 218.24 250.63 218.24C251.59 218.24 252.54 218.41 253.48 218.75C254.42 219.07 255.18 219.63 255.76 220.43L253.36 222.59ZM256.334 230.9C256.334 230.26 256.564 229.71 257.024 229.25C257.504 228.79 258.074 228.56 258.734 228.56C259.374 228.56 259.934 228.78 260.414 229.22C260.894 229.66 261.134 230.2 261.134 230.84C261.134 231.48 260.894 232.03 260.414 232.49C259.954 232.95 259.394 233.18 258.734 233.18C258.414 233.18 258.104 233.12 257.804 233C257.524 232.88 257.274 232.72 257.054 232.52C256.834 232.32 256.654 232.08 256.514 231.8C256.394 231.52 256.334 231.22 256.334 230.9Z" fill="#ECFBFF"/>
<defs>
<filter id="filter0_d" x="72" y="124" width="283" height="222.925" filterUnits="userSpaceOnUse" color-interpolation-filters="sRGB">
<feFlood flood-opacity="0" result="BackgroundImageFix"/>
<feColorMatrix in="SourceAlpha" type="matrix" values="0 0 0 0 0 0 0 0 0 0 0 0 0 0 0 0 0 0 127 0"/>
<feOffset dy="12"/>
<feGaussianBlur stdDeviation="23"/>
<feColorMatrix type="matrix" values="0 0 0 0 0 0 0 0 0 0 0 0 0 0 0 0 0 0 0.1 0"/>
<feBlend mode="normal" in2="BackgroundImageFix" result="effect1_dropShadow"/>
<feBlend mode="normal" in="SourceGraphic" in2="effect1_dropShadow" result="shape"/>
</filter>
</defs>
</svg>
