<svg width="312" height="374" viewBox="0 0 312 374" fill="none" xmlns="http://www.w3.org/2000/svg">
<path fill-rule="evenodd" clip-rule="evenodd" d="M155 257C213.542 257 261 206.408 261 144C261 81.5918 213.542 31 155 31C96.4578 31 49 81.5918 49 144C49 206.408 96.4578 257 155 257Z" fill="#FAF7F2"/>
<path fill-rule="evenodd" clip-rule="evenodd" d="M64 336C87.7482 336 107 315.405 107 290C107 264.595 87.7482 244 64 244C40.2518 244 21 264.595 21 290C21 315.405 40.2518 336 64 336Z" fill="#FAF7F2"/>
<rect x="147.01" y="62" width="108" height="147" rx="7" transform="rotate(25.8136 147.01 62)" fill="white"/>
<rect x="154.099" y="90.9785" width="71" height="11" rx="5.5" transform="rotate(25.8136 154.099 90.9785)" fill="#F4F4F4"/>
<rect x="145.826" y="108.083" width="71" height="11" rx="5.5" transform="rotate(25.8136 145.826 108.083)" fill="#F4F4F4"/>
<rect x="137.552" y="125.187" width="43" height="11" rx="5.5" transform="rotate(25.8136 137.552 125.187)" fill="#F4F4F4"/>
<rect x="207.398" y="107" width="35.3203" height="11" rx="5.5" transform="rotate(70.9629 207.398 107)" fill="#FF5F5F"/>
<rect x="189" y="126.658" width="35.3203" height="11" rx="5.5" transform="rotate(-21 189 126.658)" fill="#FF5F5F"/>
<path d="M74 183H226L206.849 331.534C206.078 337.519 200.982 342 194.948 342H104.118C98.0557 342 92.9454 337.478 92.2075 331.461L74 183Z" fill="#C4C4C4" fill-opacity="0.56"/>
<rect x="53" y="172" width="194" height="22" rx="11" fill="#C4C4C4"/>
</svg>
