<svg width="499" height="90" viewBox="0 0 499 90" fill="none" xmlns="http://www.w3.org/2000/svg">
<path fill-rule="evenodd" clip-rule="evenodd" d="M0 22.5C0 10.0736 10.0736 0 22.5 0H340.5C352.926 0 363 10.0736 363 22.5C363 34.9264 352.926 45 340.5 45H312C315.866 45 319 48.134 319 52C319 55.866 315.866 59 312 59H483.5C492.06 59 499 65.9396 499 74.5C499 83.0604 492.06 90 483.5 90H132.5C123.94 90 117 83.0604 117 74.5C117 65.9396 123.94 59 132.5 59H146C142.134 59 139 55.866 139 52C139 48.134 142.134 45 146 45H22.5C10.0736 45 0 34.9264 0 22.5Z" fill="#FAF7F2"/>
</svg>
