<svg width="382" height="297" viewBox="0 0 382 297" fill="none" xmlns="http://www.w3.org/2000/svg">
<g clip-path="url(#clip0)">
<rect x="166" y="223.257" width="54" height="41" fill="#F5F1EA"/>
<rect x="134" y="257.257" width="117" height="13" rx="6.5" fill="#EADECB"/>
<g filter="url(#filter0_d)">
<rect x="47" y="37" width="287" height="192.653" rx="30" fill="white"/>
</g>
<rect x="67" y="55.2573" width="247.414" height="159.005" rx="20" fill="#95EAFF"/>
<path d="M110.722 134.515C110.722 132.135 111.114 129.979 111.898 128.047C112.682 126.087 113.76 124.421 115.132 123.049C116.532 121.677 118.184 120.627 120.088 119.899C122.02 119.143 124.134 118.765 126.43 118.765C128.754 118.737 130.882 119.087 132.814 119.815C134.746 120.515 136.412 121.551 137.812 122.923C139.212 124.295 140.304 125.947 141.088 127.879C141.872 129.811 142.264 131.967 142.264 134.347C142.264 136.671 141.872 138.785 141.088 140.689C140.304 142.593 139.212 144.231 137.812 145.603C136.412 146.975 134.746 148.053 132.814 148.837C130.882 149.593 128.754 149.985 126.43 150.013C124.134 150.013 122.02 149.649 120.088 148.921C118.184 148.165 116.532 147.115 115.132 145.771C113.76 144.399 112.682 142.761 111.898 140.857C111.114 138.953 110.722 136.839 110.722 134.515ZM116.266 134.179C116.266 135.775 116.504 137.245 116.98 138.589C117.484 139.933 118.184 141.095 119.08 142.075C119.976 143.055 121.04 143.825 122.272 144.385C123.532 144.945 124.932 145.225 126.472 145.225C128.012 145.225 129.412 144.945 130.672 144.385C131.932 143.825 133.01 143.055 133.906 142.075C134.802 141.095 135.488 139.933 135.964 138.589C136.468 137.245 136.72 135.775 136.72 134.179C136.72 132.695 136.468 131.309 135.964 130.021C135.488 128.733 134.802 127.613 133.906 126.661C133.01 125.681 131.932 124.925 130.672 124.393C129.412 123.833 128.012 123.553 126.472 123.553C124.932 123.553 123.532 123.833 122.272 124.393C121.04 124.925 119.976 125.681 119.08 126.661C118.184 127.613 117.484 128.733 116.98 130.021C116.504 131.309 116.266 132.695 116.266 134.179ZM144.166 129.097H148.954V132.121H149.038C149.766 130.889 150.746 129.993 151.978 129.433C153.21 128.873 154.54 128.593 155.968 128.593C157.508 128.593 158.894 128.873 160.126 129.433C161.358 129.965 162.408 130.707 163.276 131.659C164.144 132.611 164.802 133.731 165.25 135.019C165.698 136.307 165.922 137.693 165.922 139.177C165.922 140.661 165.684 142.047 165.208 143.335C164.732 144.623 164.06 145.743 163.192 146.695C162.352 147.647 161.33 148.403 160.126 148.963C158.922 149.495 157.606 149.761 156.178 149.761C155.226 149.761 154.386 149.663 153.658 149.467C152.93 149.271 152.286 149.019 151.726 148.711C151.166 148.403 150.69 148.081 150.298 147.745C149.906 147.381 149.584 147.031 149.332 146.695H149.206V158.833H144.166V129.097ZM160.882 139.177C160.882 138.393 160.742 137.637 160.462 136.909C160.21 136.181 159.818 135.537 159.286 134.977C158.782 134.417 158.166 133.969 157.438 133.633C156.71 133.297 155.884 133.129 154.96 133.129C154.036 133.129 153.21 133.297 152.482 133.633C151.754 133.969 151.124 134.417 150.592 134.977C150.088 135.537 149.696 136.181 149.416 136.909C149.164 137.637 149.038 138.393 149.038 139.177C149.038 139.961 149.164 140.717 149.416 141.445C149.696 142.173 150.088 142.817 150.592 143.377C151.124 143.937 151.754 144.385 152.482 144.721C153.21 145.057 154.036 145.225 154.96 145.225C155.884 145.225 156.71 145.057 157.438 144.721C158.166 144.385 158.782 143.937 159.286 143.377C159.818 142.817 160.21 142.173 160.462 141.445C160.742 140.717 160.882 139.961 160.882 139.177ZM165.592 133.381V129.097H169.75V123.259H174.79V129.097H180.334V133.381H174.79V142.201C174.79 143.209 174.972 144.007 175.336 144.595C175.728 145.183 176.484 145.477 177.604 145.477C178.052 145.477 178.542 145.435 179.074 145.351C179.606 145.239 180.026 145.071 180.334 144.847V149.089C179.802 149.341 179.144 149.509 178.36 149.593C177.604 149.705 176.932 149.761 176.344 149.761C175 149.761 173.894 149.607 173.026 149.299C172.186 149.019 171.514 148.585 171.01 147.997C170.534 147.381 170.198 146.625 170.002 145.729C169.834 144.833 169.75 143.797 169.75 142.621V133.381H165.592ZM181.717 129.097H186.757V149.257H181.717V129.097ZM181.003 122.251C181.003 121.439 181.297 120.739 181.885 120.151C182.501 119.535 183.271 119.227 184.195 119.227C185.119 119.227 185.889 119.521 186.505 120.109C187.149 120.669 187.471 121.383 187.471 122.251C187.471 123.119 187.149 123.847 186.505 124.435C185.889 124.995 185.119 125.275 184.195 125.275C183.271 125.275 182.501 124.981 181.885 124.393C181.297 123.777 181.003 123.063 181.003 122.251ZM189.657 129.097H194.445V132.247H194.529C194.977 131.295 195.691 130.455 196.671 129.727C197.679 128.971 199.023 128.593 200.703 128.593C203.867 128.593 205.967 129.839 207.003 132.331C207.731 131.043 208.641 130.105 209.733 129.517C210.825 128.901 212.127 128.593 213.639 128.593C214.983 128.593 216.117 128.817 217.041 129.265C217.965 129.713 218.707 130.329 219.267 131.113C219.855 131.897 220.275 132.821 220.527 133.885C220.779 134.921 220.905 136.041 220.905 137.245V149.257H215.865V137.833C215.865 137.217 215.809 136.629 215.697 136.069C215.585 135.481 215.389 134.977 215.109 134.557C214.829 134.109 214.451 133.759 213.975 133.507C213.499 133.255 212.883 133.129 212.127 133.129C211.343 133.129 210.671 133.283 210.111 133.591C209.579 133.871 209.131 134.263 208.767 134.767C208.431 135.243 208.179 135.803 208.011 136.447C207.871 137.063 207.801 137.693 207.801 138.337V149.257H202.761V137.245C202.761 135.985 202.495 134.991 201.963 134.263C201.431 133.507 200.549 133.129 199.317 133.129C198.477 133.129 197.763 133.269 197.175 133.549C196.615 133.829 196.139 134.207 195.747 134.683C195.383 135.159 195.117 135.705 194.949 136.321C194.781 136.937 194.697 137.581 194.697 138.253V149.257H189.657V129.097ZM242.131 149.257H237.343V146.023H237.259C236.783 147.031 236.055 147.913 235.075 148.669C234.095 149.397 232.765 149.761 231.085 149.761C229.741 149.761 228.593 149.551 227.641 149.131C226.717 148.683 225.961 148.095 225.373 147.367C224.785 146.611 224.365 145.757 224.113 144.805C223.861 143.853 223.735 142.859 223.735 141.823V129.097H228.775V139.303C228.775 139.863 228.803 140.493 228.859 141.193C228.915 141.865 229.055 142.509 229.279 143.125C229.531 143.713 229.895 144.217 230.371 144.637C230.875 145.029 231.575 145.225 232.471 145.225C233.311 145.225 234.011 145.085 234.571 144.805C235.159 144.525 235.635 144.147 235.999 143.671C236.391 143.195 236.671 142.649 236.839 142.033C237.007 141.417 237.091 140.773 237.091 140.101V129.097H242.131V149.257ZM255.928 134.683C254.948 133.311 253.632 132.625 251.98 132.625C251.308 132.625 250.65 132.793 250.006 133.129C249.362 133.465 249.04 134.011 249.04 134.767C249.04 135.383 249.306 135.831 249.838 136.111C250.37 136.391 251.042 136.629 251.854 136.825C252.666 137.021 253.534 137.231 254.458 137.455C255.41 137.651 256.292 137.973 257.104 138.421C257.916 138.841 258.588 139.429 259.12 140.185C259.652 140.941 259.918 141.977 259.918 143.293C259.918 144.497 259.652 145.519 259.12 146.359C258.616 147.171 257.944 147.829 257.104 148.333C256.292 148.837 255.368 149.201 254.332 149.425C253.296 149.649 252.26 149.761 251.224 149.761C249.656 149.761 248.214 149.537 246.898 149.089C245.582 148.641 244.406 147.829 243.37 146.653L246.73 143.503C247.374 144.231 248.06 144.833 248.788 145.309C249.544 145.757 250.454 145.981 251.518 145.981C251.882 145.981 252.26 145.939 252.652 145.855C253.044 145.771 253.408 145.631 253.744 145.435C254.08 145.239 254.346 145.001 254.542 144.721C254.766 144.413 254.878 144.063 254.878 143.671C254.878 142.971 254.612 142.453 254.08 142.117C253.548 141.781 252.876 141.515 252.064 141.319C251.252 141.095 250.37 140.899 249.418 140.731C248.494 140.535 247.626 140.241 246.814 139.849C246.002 139.429 245.33 138.855 244.798 138.127C244.266 137.399 244 136.391 244 135.103C244 133.983 244.224 133.017 244.672 132.205C245.148 131.365 245.764 130.679 246.52 130.147C247.276 129.615 248.144 129.223 249.124 128.971C250.104 128.719 251.098 128.593 252.106 128.593C253.45 128.593 254.78 128.831 256.096 129.307C257.412 129.755 258.476 130.539 259.288 131.659L255.928 134.683ZM261.161 146.317C261.161 145.421 261.483 144.651 262.127 144.007C262.799 143.363 263.597 143.041 264.521 143.041C265.417 143.041 266.201 143.349 266.873 143.965C267.545 144.581 267.881 145.337 267.881 146.233C267.881 147.129 267.545 147.899 266.873 148.543C266.229 149.187 265.445 149.509 264.521 149.509C264.073 149.509 263.639 149.425 263.219 149.257C262.827 149.089 262.477 148.865 262.169 148.585C261.861 148.305 261.609 147.969 261.413 147.577C261.245 147.185 261.161 146.765 261.161 146.317Z" fill="#ECFBFF"/>
<g filter="url(#filter1_d)">
<rect x="66" y="281.257" width="250" height="11" rx="5.5" fill="white"/>
</g>
</g>
<defs>
<filter id="filter0_d" x="1" y="3" width="379" height="284.653" filterUnits="userSpaceOnUse" color-interpolation-filters="sRGB">
<feFlood flood-opacity="0" result="BackgroundImageFix"/>
<feColorMatrix in="SourceAlpha" type="matrix" values="0 0 0 0 0 0 0 0 0 0 0 0 0 0 0 0 0 0 127 0"/>
<feOffset dy="12"/>
<feGaussianBlur stdDeviation="23"/>
<feColorMatrix type="matrix" values="0 0 0 0 0 0 0 0 0 0 0 0 0 0 0 0 0 0 0.1 0"/>
<feBlend mode="normal" in2="BackgroundImageFix" result="effect1_dropShadow"/>
<feBlend mode="normal" in="SourceGraphic" in2="effect1_dropShadow" result="shape"/>
</filter>
<filter id="filter1_d" x="20" y="247.257" width="342" height="103" filterUnits="userSpaceOnUse" color-interpolation-filters="sRGB">
<feFlood flood-opacity="0" result="BackgroundImageFix"/>
<feColorMatrix in="SourceAlpha" type="matrix" values="0 0 0 0 0 0 0 0 0 0 0 0 0 0 0 0 0 0 127 0"/>
<feOffset dy="12"/>
<feGaussianBlur stdDeviation="23"/>
<feColorMatrix type="matrix" values="0 0 0 0 0 0 0 0 0 0 0 0 0 0 0 0 0 0 0.1 0"/>
<feBlend mode="normal" in2="BackgroundImageFix" result="effect1_dropShadow"/>
<feBlend mode="normal" in="SourceGraphic" in2="effect1_dropShadow" result="shape"/>
</filter>
<clipPath id="clip0">
<rect width="382" height="297" fill="white"/>
</clipPath>
</defs>
</svg>
