<svg width="194" height="186" viewBox="0 0 194 186" fill="none" xmlns="http://www.w3.org/2000/svg">
<path fill-rule="evenodd" clip-rule="evenodd" d="M84.5 167C119.018 167 147 137.227 147 100.5C147 63.7731 119.018 34 84.5 34C49.9822 34 22 63.7731 22 100.5C22 137.227 49.9822 167 84.5 167Z" fill="#FAF7F2"/>
<rect x="27.5444" y="133.265" width="64.2952" height="114.549" rx="12" transform="rotate(-90 27.5444 133.265)" fill="#C5F2FD"/>
<rect x="36.4126" y="125.898" width="49.5147" height="90.161" rx="6" transform="rotate(-90 36.4126 125.898)" fill="#95EAFF"/>
<rect x="131.671" y="115.606" width="26" height="3" rx="1.5" transform="rotate(-90 131.671 115.606)" fill="#95EAFF"/>
<path d="M64.3109 101.566C64.3109 99.2998 64.6842 97.2464 65.4309 95.4064C66.1776 93.5398 67.2042 91.9531 68.5109 90.6464C69.8442 89.3398 71.4176 88.3398 73.2309 87.6464C75.0709 86.9264 77.0842 86.5664 79.2709 86.5664C81.4842 86.5398 83.5109 86.8731 85.3509 87.5664C87.1909 88.2331 88.7776 89.2198 90.1109 90.5264C91.4442 91.8331 92.4842 93.4064 93.2309 95.2464C93.9776 97.0864 94.3509 99.1398 94.3509 101.406C94.3509 103.62 93.9776 105.633 93.2309 107.446C92.4842 109.26 91.4442 110.82 90.1109 112.126C88.7776 113.433 87.1909 114.46 85.3509 115.206C83.5109 115.926 81.4842 116.3 79.2709 116.326C77.0842 116.326 75.0709 115.98 73.2309 115.286C71.4176 114.566 69.8442 113.566 68.5109 112.286C67.2042 110.98 66.1776 109.42 65.4309 107.606C64.6842 105.793 64.3109 103.78 64.3109 101.566ZM69.5909 101.246C69.5909 102.766 69.8176 104.166 70.2709 105.446C70.7509 106.726 71.4176 107.833 72.2709 108.766C73.1242 109.7 74.1376 110.433 75.3109 110.966C76.5109 111.5 77.8442 111.766 79.3109 111.766C80.7776 111.766 82.1109 111.5 83.3109 110.966C84.5109 110.433 85.5376 109.7 86.3909 108.766C87.2442 107.833 87.8976 106.726 88.3509 105.446C88.8309 104.166 89.0709 102.766 89.0709 101.246C89.0709 99.8331 88.8309 98.5131 88.3509 97.2864C87.8976 96.0598 87.2442 94.9931 86.3909 94.0864C85.5376 93.1531 84.5109 92.4331 83.3109 91.9264C82.1109 91.3931 80.7776 91.1264 79.3109 91.1264C77.8442 91.1264 76.5109 91.3931 75.3109 91.9264C74.1376 92.4331 73.1242 93.1531 72.2709 94.0864C71.4176 94.9931 70.7509 96.0598 70.2709 97.2864C69.8176 98.5131 69.5909 99.8331 69.5909 101.246ZM96.0347 112.806C96.0347 111.953 96.3413 111.22 96.9547 110.606C97.5947 109.993 98.3547 109.686 99.2347 109.686C100.088 109.686 100.835 109.98 101.475 110.566C102.115 111.153 102.435 111.873 102.435 112.726C102.435 113.58 102.115 114.313 101.475 114.926C100.861 115.54 100.115 115.846 99.2347 115.846C98.808 115.846 98.3947 115.766 97.9947 115.606C97.6213 115.446 97.288 115.233 96.9947 114.966C96.7013 114.7 96.4613 114.38 96.2747 114.006C96.1147 113.633 96.0347 113.233 96.0347 112.806Z" fill="#ECFBFF"/>
</svg>
