<svg width="626" height="476" viewBox="0 0 626 476" fill="none" xmlns="http://www.w3.org/2000/svg">
<path fill-rule="evenodd" clip-rule="evenodd" d="M207.5 440C312.158 440 397 355.158 397 250.5C397 145.842 312.158 61 207.5 61C102.842 61 18 145.842 18 250.5C18 355.158 102.842 440 207.5 440Z" fill="#FAF7F2"/>
<path fill-rule="evenodd" clip-rule="evenodd" d="M466 422C537.245 422 595 364.245 595 293C595 221.755 537.245 164 466 164C394.755 164 337 221.755 337 293C337 364.245 394.755 422 466 422Z" fill="#FAF7F2"/>
<rect x="107" y="317" width="19" height="56" rx="8" fill="#CBA874"/>
<rect x="298" y="354" width="19" height="191" rx="8" transform="rotate(90 298 354)" fill="#CBA874"/>
<rect x="279" y="317" width="19" height="56" rx="8" fill="#CBA874"/>
<rect x="268" y="364" width="9" height="161" rx="4.5" transform="rotate(90 268 364)" fill="#B6915B"/>
<rect x="117" y="321" width="52" height="10" rx="5" transform="rotate(90 117 321)" fill="#B6915B"/>
<rect x="363" y="317" width="19" height="56" rx="8" fill="#95EAFF"/>
<rect x="554" y="354" width="19" height="191" rx="8" transform="rotate(90 554 354)" fill="#95EAFF"/>
<rect x="535" y="317" width="19" height="56" rx="8" fill="#95EAFF"/>
<rect x="524" y="364" width="9" height="161" rx="4.5" transform="rotate(90 524 364)" fill="#C5F2FD"/>
<rect x="373" y="321" width="52" height="10" rx="5" transform="rotate(90 373 321)" fill="#C5F2FD"/>
<rect x="126" y="257" width="153" height="97" fill="white"/>
<rect x="136" y="195" width="153" height="62" fill="white"/>
<path d="M183 195H233.5L208.093 212.306C203.071 215.727 196.228 214.428 192.808 209.405L183 195Z" fill="#E9E9E9"/>
<rect x="115" y="133" width="153" height="62" fill="white"/>
<rect x="382" y="345" width="153" height="9" fill="white"/>
<path d="M247 159H217L232.885 166.751C235.63 168.09 238.925 167.496 241.029 165.282L247 159Z" fill="#E9E9E9"/>
<path d="M158 321H188L172.115 328.751C169.37 330.09 166.075 329.496 163.971 327.282L158 321Z" fill="#E9E9E9"/>
<path d="M396.329 276.119C394.524 273.171 395.578 269.311 398.631 267.688L403.774 264.956C406.801 263.347 410.559 264.598 412.018 267.701L424.377 293.974C425.739 296.869 424.589 300.324 421.763 301.826L419.431 303.065C416.63 304.553 413.155 303.604 411.499 300.899L396.329 276.119Z" fill="#EEEBE5"/>
<path d="M516.246 276.119C518.051 273.171 516.997 269.311 513.944 267.688L508.802 264.956C505.774 263.347 502.016 264.598 500.557 267.701L488.198 293.974C486.836 296.869 487.986 300.324 490.812 301.826L493.144 303.065C495.945 304.553 499.42 303.604 501.077 300.899L516.246 276.119Z" fill="#EEEBE5"/>
<path d="M465.112 257.365C465.322 253.914 462.58 251 459.123 251H453.3C449.871 251 447.14 253.868 447.307 257.292L448.722 286.292C448.877 289.489 451.514 292 454.714 292H457.355C460.527 292 463.151 289.531 463.344 286.365L465.112 257.365Z" fill="#EEEBE5"/>
</svg>
