<svg width="900" height="828" viewBox="0 0 900 828" fill="none" xmlns="http://www.w3.org/2000/svg">
<path fill-rule="evenodd" clip-rule="evenodd" d="M346 64.5C346 52.0736 356.074 42 368.5 42H686.5C698.926 42 709 52.0736 709 64.5C709 76.9264 698.926 87 686.5 87H658C661.866 87 665 90.134 665 94C665 97.866 661.866 101 658 101H829.5C838.06 101 845 107.94 845 116.5C845 125.06 838.06 132 829.5 132H478.5C469.94 132 463 125.06 463 116.5C463 107.94 469.94 101 478.5 101H492C488.134 101 485 97.866 485 94C485 90.134 488.134 87 492 87H368.5C356.074 87 346 76.9264 346 64.5Z" fill="#FAF7F2"/>
<path fill-rule="evenodd" clip-rule="evenodd" d="M412.737 776.749C472.66 776.749 521.237 728.172 521.237 668.249C521.237 608.326 472.66 559.749 412.737 559.749C352.814 559.749 304.237 608.326 304.237 668.249C304.237 728.172 352.814 776.749 412.737 776.749Z" fill="#FAF7F2"/>
</svg>
