<svg width="881" height="414" viewBox="0 0 881 414" fill="none" xmlns="http://www.w3.org/2000/svg">
<g clip-path="url(#clip0)">
<rect x="373" y="305" width="80" height="63" fill="#F5F1EA"/>
<rect x="325" y="357" width="176" height="21" rx="10.5" fill="#EADECB"/>
<g filter="url(#filter0_d)">
<rect x="192" y="23.5088" width="435" height="292" rx="38" fill="white"/>
</g>
<rect x="222" y="48.9998" width="375" height="241" rx="25" fill="#FAF7F2"/>
<circle cx="409" cy="170" r="52" fill="#EADECC"/>
<g filter="url(#filter1_d)">
<path fill-rule="evenodd" clip-rule="evenodd" d="M393.045 183.176C392.791 182.881 392.564 182.555 392.371 182.199L383.666 166.139C382.218 163.469 383.21 160.13 385.88 158.683C388.551 157.235 391.889 158.227 393.336 160.897L399.668 172.578L432.609 154.669C435.278 153.218 438.617 154.205 440.068 156.874C441.519 159.543 440.532 162.882 437.863 164.333L399.443 185.221C397.189 186.446 394.369 185.612 393.144 183.359L393.045 183.176Z" fill="white"/>
</g>
<g filter="url(#filter2_d)">
<rect x="660" y="347" width="70" height="38" rx="19" fill="white"/>
</g>
<g filter="url(#filter3_d)">
<rect x="222" y="368" width="378" height="17" rx="8.5" fill="white"/>
</g>
</g>
<defs>
<filter id="filter0_d" x="146" y="-10.4912" width="527" height="384" filterUnits="userSpaceOnUse" color-interpolation-filters="sRGB">
<feFlood flood-opacity="0" result="BackgroundImageFix"/>
<feColorMatrix in="SourceAlpha" type="matrix" values="0 0 0 0 0 0 0 0 0 0 0 0 0 0 0 0 0 0 127 0"/>
<feOffset dy="12"/>
<feGaussianBlur stdDeviation="23"/>
<feColorMatrix type="matrix" values="0 0 0 0 0 0 0 0 0 0 0 0 0 0 0 0 0 0 0.1 0"/>
<feBlend mode="normal" in2="BackgroundImageFix" result="effect1_dropShadow"/>
<feBlend mode="normal" in="SourceGraphic" in2="effect1_dropShadow" result="shape"/>
</filter>
<filter id="filter1_d" x="382" y="154" width="58.7371" height="37.7855" filterUnits="userSpaceOnUse" color-interpolation-filters="sRGB">
<feFlood flood-opacity="0" result="BackgroundImageFix"/>
<feColorMatrix in="SourceAlpha" type="matrix" values="0 0 0 0 0 0 0 0 0 0 0 0 0 0 0 0 0 0 127 0"/>
<feOffset dx="-1" dy="6"/>
<feColorMatrix type="matrix" values="0 0 0 0 0 0 0 0 0 0 0 0 0 0 0 0 0 0 0.25 0"/>
<feBlend mode="normal" in2="BackgroundImageFix" result="effect1_dropShadow"/>
<feBlend mode="normal" in="SourceGraphic" in2="effect1_dropShadow" result="shape"/>
</filter>
<filter id="filter2_d" x="614" y="313" width="162" height="130" filterUnits="userSpaceOnUse" color-interpolation-filters="sRGB">
<feFlood flood-opacity="0" result="BackgroundImageFix"/>
<feColorMatrix in="SourceAlpha" type="matrix" values="0 0 0 0 0 0 0 0 0 0 0 0 0 0 0 0 0 0 127 0"/>
<feOffset dy="12"/>
<feGaussianBlur stdDeviation="23"/>
<feColorMatrix type="matrix" values="0 0 0 0 0 0 0 0 0 0 0 0 0 0 0 0 0 0 0.1 0"/>
<feBlend mode="normal" in2="BackgroundImageFix" result="effect1_dropShadow"/>
<feBlend mode="normal" in="SourceGraphic" in2="effect1_dropShadow" result="shape"/>
</filter>
<filter id="filter3_d" x="176" y="334" width="470" height="109" filterUnits="userSpaceOnUse" color-interpolation-filters="sRGB">
<feFlood flood-opacity="0" result="BackgroundImageFix"/>
<feColorMatrix in="SourceAlpha" type="matrix" values="0 0 0 0 0 0 0 0 0 0 0 0 0 0 0 0 0 0 127 0"/>
<feOffset dy="12"/>
<feGaussianBlur stdDeviation="23"/>
<feColorMatrix type="matrix" values="0 0 0 0 0 0 0 0 0 0 0 0 0 0 0 0 0 0 0.1 0"/>
<feBlend mode="normal" in2="BackgroundImageFix" result="effect1_dropShadow"/>
<feBlend mode="normal" in="SourceGraphic" in2="effect1_dropShadow" result="shape"/>
</filter>
<clipPath id="clip0">
<rect width="881" height="414" fill="white"/>
</clipPath>
</defs>
</svg>
