<svg width="223" height="355" viewBox="0 0 223 355" fill="none" xmlns="http://www.w3.org/2000/svg">
<path d="M127 237C127 244.732 120.732 251 113 251C105.268 251 99 244.732 99 237L99 152C99 144.268 105.268 138 113 138C120.732 138 127 144.268 127 152L127 237Z" fill="#DBDBDB"/>
<path d="M58 51C58 36.0883 70.0883 24 85 24H139C153.912 24 166 36.0883 166 51V115C166 144.823 141.823 169 112 169C82.1766 169 58 144.823 58 115V51Z" fill="#D8D8D8"/>
<path d="M223 315L0 315L0 241C0 215.595 20.5949 195 46 195L177 195C202.405 195 223 215.595 223 241L223 315Z" fill="#F8E9FF"/>
<path d="M223 315L99 315L139 195H178C202.853 195 223 215.147 223 240L223 315Z" fill="#2B2B2B"/>
<path d="M0 315H119L84 195H71.55C46.7721 195 34.3832 195 24.886 199.745C16.1688 204.101 9.10118 211.169 4.74549 219.886C0 229.383 0 241.772 0 266.55L0 315Z" fill="#393939"/>
<path d="M150.5 195H111L131.663 210.396C134.33 212.383 138.105 211.822 140.078 209.144L150.5 195Z" fill="#CEAFDC"/>
<path d="M72 195H111.5L90.837 210.396C88.1698 212.383 84.3949 211.822 82.4218 209.144L72 195Z" fill="#CEAFDC"/>
<path d="M50 343.5C50 349.851 44.8513 355 38.5 355C32.1487 355 27 349.851 27 343.5L27 253.5C27 247.149 32.1487 242 38.5 242C44.8513 242 50 247.149 50 253.5L50 343.5Z" fill="white"/>
<path d="M196 343.5C196 349.851 190.851 355 184.5 355C178.149 355 173 349.851 173 343.5L173 253.5C173 247.149 178.149 242 184.5 242C190.851 242 196 247.149 196 253.5L196 343.5Z" fill="white"/>
<path d="M75 116.648C75 107.654 85.2145 102.469 92.4745 107.777L97.1036 111.162C107.268 118.594 121.186 118.156 130.863 110.1L131.547 109.531C138.48 103.759 149 108.689 149 117.711C149 131.347 138.618 142.742 125.04 144.008L117.432 144.717C115.413 144.905 113.382 144.917 111.362 144.751L100.043 143.825C85.8932 142.666 75 130.845 75 116.648Z" fill="#F4F4F4"/>
<rect x="123" y="62" width="10" height="30" rx="5" fill="#C4C4C4"/>
<rect x="89" y="62" width="10" height="30" rx="5" fill="#C4C4C4"/>
<rect x="72" width="101" height="47" rx="23.5" fill="#C4C4C4"/>
<rect x="50" y="9" width="39" height="44" rx="19.5" fill="#C4C4C4"/>
<rect x="157" y="19" width="13" height="62" rx="6.5" fill="#C4C4C4"/>
<rect x="57" y="16" width="13" height="62" rx="6.5" fill="#C4C4C4"/>
</svg>
