<svg width="223" height="355" viewBox="0 0 223 355" fill="none" xmlns="http://www.w3.org/2000/svg">
<path d="M127 237C127 244.732 120.732 251 113 251C105.268 251 99 244.732 99 237L99 152C99 144.268 105.268 138 113 138C120.732 138 127 144.268 127 152L127 237Z" fill="#DBDBDB"/>
<path d="M58 51C58 36.0883 70.0883 24 85 24H139C153.912 24 166 36.0883 166 51V115C166 144.823 141.823 169 112 169C82.1766 169 58 144.823 58 115V51Z" fill="#D8D8D8"/>
<path d="M223 315L0 315L0 241C0 215.595 20.5949 195 46 195L177 195C202.405 195 223 215.595 223 241L223 315Z" fill="#D8D8D8"/>
<path d="M50 343.5C50 349.851 44.8513 355 38.5 355C32.1487 355 27 349.851 27 343.5L27 253.5C27 247.149 32.1487 242 38.5 242C44.8513 242 50 247.149 50 253.5L50 343.5Z" fill="white"/>
<path d="M223 315H139L139 195H178C202.853 195 223 215.147 223 240L223 315Z" fill="#F8F8F8"/>
<path d="M0 315H84L84 195H71.55C46.7721 195 34.3832 195 24.886 199.745C16.1688 204.101 9.10118 211.169 4.74549 219.886C0 229.383 0 241.772 0 266.55L0 315Z" fill="#F8F8F8"/>
<rect x="123" y="62" width="10" height="30" rx="5" fill="#C4C4C4"/>
<rect x="89" y="62" width="10" height="30" rx="5" fill="#C4C4C4"/>
<rect x="72" width="101" height="47" rx="23.5" fill="#C4C4C4"/>
<rect x="50" y="9" width="39" height="44" rx="19.5" fill="#C4C4C4"/>
<rect x="157" y="19" width="13" height="62" rx="6.5" fill="#C4C4C4"/>
<rect x="57" y="16" width="13" height="62" rx="6.5" fill="#C4C4C4"/>
<circle cx="112.5" cy="121.5" r="25.5" fill="#C4C4C4"/>
<circle cx="113" cy="122" r="17" fill="#D8D8D8"/>
<rect x="86" y="92" width="54" height="27" fill="#D8D8D8"/>
</svg>
