<svg width="672" height="428" viewBox="0 0 672 428" fill="none" xmlns="http://www.w3.org/2000/svg">
<g clip-path="url(#clip0)">
<g filter="url(#filter0_d)">
<rect x="418" y="152" width="191" height="130.925" rx="12" fill="white"/>
</g>
<rect x="428" y="163" width="157" height="108.058" rx="9" fill="#95EAFF"/>
<circle cx="596" cy="219" r="5" fill="#EEEEEE"/>
<rect x="163" y="331" width="67" height="52" fill="#F5F1EA"/>
<rect x="123" y="374" width="146" height="17" rx="8.5" fill="#EADECB"/>
<g filter="url(#filter1_d)">
<rect x="13" y="97.2812" width="361" height="242.326" rx="38" fill="white"/>
</g>
<rect x="37.8965" y="118.436" width="311.207" height="200.002" rx="25" fill="#95EAFF"/>
<path d="M85.255 218.695C85.255 215.578 85.7683 212.755 86.795 210.225C87.8217 207.658 89.2333 205.477 91.03 203.68C92.8633 201.883 95.0267 200.508 97.52 199.555C100.05 198.565 102.818 198.07 105.825 198.07C108.868 198.033 111.655 198.492 114.185 199.445C116.715 200.362 118.897 201.718 120.73 203.515C122.563 205.312 123.993 207.475 125.02 210.005C126.047 212.535 126.56 215.358 126.56 218.475C126.56 221.518 126.047 224.287 125.02 226.78C123.993 229.273 122.563 231.418 120.73 233.215C118.897 235.012 116.715 236.423 114.185 237.45C111.655 238.44 108.868 238.953 105.825 238.99C102.818 238.99 100.05 238.513 97.52 237.56C95.0267 236.57 92.8633 235.195 91.03 233.435C89.2333 231.638 87.8217 229.493 86.795 227C85.7683 224.507 85.255 221.738 85.255 218.695ZM92.515 218.255C92.515 220.345 92.8267 222.27 93.45 224.03C94.11 225.79 95.0267 227.312 96.2 228.595C97.3733 229.878 98.7667 230.887 100.38 231.62C102.03 232.353 103.863 232.72 105.88 232.72C107.897 232.72 109.73 232.353 111.38 231.62C113.03 230.887 114.442 229.878 115.615 228.595C116.788 227.312 117.687 225.79 118.31 224.03C118.97 222.27 119.3 220.345 119.3 218.255C119.3 216.312 118.97 214.497 118.31 212.81C117.687 211.123 116.788 209.657 115.615 208.41C114.442 207.127 113.03 206.137 111.38 205.44C109.73 204.707 107.897 204.34 105.88 204.34C103.863 204.34 102.03 204.707 100.38 205.44C98.7667 206.137 97.3733 207.127 96.2 208.41C95.0267 209.657 94.11 211.123 93.45 212.81C92.8267 214.497 92.515 216.312 92.515 218.255ZM129.879 211.6H136.149V215.56H136.259C137.212 213.947 138.496 212.773 140.109 212.04C141.722 211.307 143.464 210.94 145.334 210.94C147.351 210.94 149.166 211.307 150.779 212.04C152.392 212.737 153.767 213.708 154.904 214.955C156.041 216.202 156.902 217.668 157.489 219.355C158.076 221.042 158.369 222.857 158.369 224.8C158.369 226.743 158.057 228.558 157.434 230.245C156.811 231.932 155.931 233.398 154.794 234.645C153.694 235.892 152.356 236.882 150.779 237.615C149.202 238.312 147.479 238.66 145.609 238.66C144.362 238.66 143.262 238.532 142.309 238.275C141.356 238.018 140.512 237.688 139.779 237.285C139.046 236.882 138.422 236.46 137.909 236.02C137.396 235.543 136.974 235.085 136.644 234.645H136.479V250.54H129.879V211.6ZM151.769 224.8C151.769 223.773 151.586 222.783 151.219 221.83C150.889 220.877 150.376 220.033 149.679 219.3C149.019 218.567 148.212 217.98 147.259 217.54C146.306 217.1 145.224 216.88 144.014 216.88C142.804 216.88 141.722 217.1 140.769 217.54C139.816 217.98 138.991 218.567 138.294 219.3C137.634 220.033 137.121 220.877 136.754 221.83C136.424 222.783 136.259 223.773 136.259 224.8C136.259 225.827 136.424 226.817 136.754 227.77C137.121 228.723 137.634 229.567 138.294 230.3C138.991 231.033 139.816 231.62 140.769 232.06C141.722 232.5 142.804 232.72 144.014 232.72C145.224 232.72 146.306 232.5 147.259 232.06C148.212 231.62 149.019 231.033 149.679 230.3C150.376 229.567 150.889 228.723 151.219 227.77C151.586 226.817 151.769 225.827 151.769 224.8ZM158.766 217.21V211.6H164.211V203.955H170.811V211.6H178.071V217.21H170.811V228.76C170.811 230.08 171.049 231.125 171.526 231.895C172.039 232.665 173.029 233.05 174.496 233.05C175.083 233.05 175.724 232.995 176.421 232.885C177.118 232.738 177.668 232.518 178.071 232.225V237.78C177.374 238.11 176.513 238.33 175.486 238.44C174.496 238.587 173.616 238.66 172.846 238.66C171.086 238.66 169.638 238.458 168.501 238.055C167.401 237.688 166.521 237.12 165.861 236.35C165.238 235.543 164.798 234.553 164.541 233.38C164.321 232.207 164.211 230.85 164.211 229.31V217.21H158.766ZM180.71 211.6H187.31V238H180.71V211.6ZM179.775 202.635C179.775 201.572 180.16 200.655 180.93 199.885C181.737 199.078 182.745 198.675 183.955 198.675C185.165 198.675 186.173 199.06 186.98 199.83C187.823 200.563 188.245 201.498 188.245 202.635C188.245 203.772 187.823 204.725 186.98 205.495C186.173 206.228 185.165 206.595 183.955 206.595C182.745 206.595 181.737 206.21 180.93 205.44C180.16 204.633 179.775 203.698 179.775 202.635ZM191.936 211.6H198.206V215.725H198.316C198.902 214.478 199.837 213.378 201.121 212.425C202.441 211.435 204.201 210.94 206.401 210.94C210.544 210.94 213.294 212.572 214.651 215.835C215.604 214.148 216.796 212.92 218.226 212.15C219.656 211.343 221.361 210.94 223.341 210.94C225.101 210.94 226.586 211.233 227.796 211.82C229.006 212.407 229.977 213.213 230.711 214.24C231.481 215.267 232.031 216.477 232.361 217.87C232.691 219.227 232.856 220.693 232.856 222.27V238H226.256V223.04C226.256 222.233 226.182 221.463 226.036 220.73C225.889 219.96 225.632 219.3 225.266 218.75C224.899 218.163 224.404 217.705 223.781 217.375C223.157 217.045 222.351 216.88 221.361 216.88C220.334 216.88 219.454 217.082 218.721 217.485C218.024 217.852 217.437 218.365 216.961 219.025C216.521 219.648 216.191 220.382 215.971 221.225C215.787 222.032 215.696 222.857 215.696 223.7V238H209.096V222.27C209.096 220.62 208.747 219.318 208.051 218.365C207.354 217.375 206.199 216.88 204.586 216.88C203.486 216.88 202.551 217.063 201.781 217.43C201.047 217.797 200.424 218.292 199.911 218.915C199.434 219.538 199.086 220.253 198.866 221.06C198.646 221.867 198.536 222.71 198.536 223.59V238H191.936V211.6ZM261.481 238H255.211V233.765H255.101C254.477 235.085 253.524 236.24 252.241 237.23C250.957 238.183 249.216 238.66 247.016 238.66C245.256 238.66 243.752 238.385 242.506 237.835C241.296 237.248 240.306 236.478 239.536 235.525C238.766 234.535 238.216 233.417 237.886 232.17C237.556 230.923 237.391 229.622 237.391 228.265V211.6H243.991V224.965C243.991 225.698 244.027 226.523 244.101 227.44C244.174 228.32 244.357 229.163 244.651 229.97C244.981 230.74 245.457 231.4 246.081 231.95C246.741 232.463 247.657 232.72 248.831 232.72C249.931 232.72 250.847 232.537 251.581 232.17C252.351 231.803 252.974 231.308 253.451 230.685C253.964 230.062 254.331 229.347 254.551 228.54C254.771 227.733 254.881 226.89 254.881 226.01V211.6H261.481V238ZM280.376 218.915C279.093 217.118 277.369 216.22 275.206 216.22C274.326 216.22 273.464 216.44 272.621 216.88C271.778 217.32 271.356 218.035 271.356 219.025C271.356 219.832 271.704 220.418 272.401 220.785C273.098 221.152 273.978 221.463 275.041 221.72C276.104 221.977 277.241 222.252 278.451 222.545C279.698 222.802 280.853 223.223 281.916 223.81C282.979 224.36 283.859 225.13 284.556 226.12C285.253 227.11 285.601 228.467 285.601 230.19C285.601 231.767 285.253 233.105 284.556 234.205C283.896 235.268 283.016 236.13 281.916 236.79C280.853 237.45 279.643 237.927 278.286 238.22C276.929 238.513 275.573 238.66 274.216 238.66C272.163 238.66 270.274 238.367 268.551 237.78C266.828 237.193 265.288 236.13 263.931 234.59L268.331 230.465C269.174 231.418 270.073 232.207 271.026 232.83C272.016 233.417 273.208 233.71 274.601 233.71C275.078 233.71 275.573 233.655 276.086 233.545C276.599 233.435 277.076 233.252 277.516 232.995C277.956 232.738 278.304 232.427 278.561 232.06C278.854 231.657 279.001 231.198 279.001 230.685C279.001 229.768 278.653 229.09 277.956 228.65C277.259 228.21 276.379 227.862 275.316 227.605C274.253 227.312 273.098 227.055 271.851 226.835C270.641 226.578 269.504 226.193 268.441 225.68C267.378 225.13 266.498 224.378 265.801 223.425C265.104 222.472 264.756 221.152 264.756 219.465C264.756 217.998 265.049 216.733 265.636 215.67C266.259 214.57 267.066 213.672 268.056 212.975C269.046 212.278 270.183 211.765 271.466 211.435C272.749 211.105 274.051 210.94 275.371 210.94C277.131 210.94 278.873 211.252 280.596 211.875C282.319 212.462 283.713 213.488 284.776 214.955L280.376 218.915ZM288.058 234.15C288.058 232.977 288.48 231.968 289.323 231.125C290.203 230.282 291.248 229.86 292.458 229.86C293.631 229.86 294.658 230.263 295.538 231.07C296.418 231.877 296.858 232.867 296.858 234.04C296.858 235.213 296.418 236.222 295.538 237.065C294.695 237.908 293.668 238.33 292.458 238.33C291.871 238.33 291.303 238.22 290.753 238C290.24 237.78 289.781 237.487 289.378 237.12C288.975 236.753 288.645 236.313 288.388 235.8C288.168 235.287 288.058 234.737 288.058 234.15Z" fill="#ECFBFF"/>
<path d="M454.23 216.47C454.23 214.77 454.51 213.23 455.07 211.85C455.63 210.45 456.4 209.26 457.38 208.28C458.38 207.3 459.56 206.55 460.92 206.03C462.3 205.49 463.81 205.22 465.45 205.22C467.11 205.2 468.63 205.45 470.01 205.97C471.39 206.47 472.58 207.21 473.58 208.19C474.58 209.17 475.36 210.35 475.92 211.73C476.48 213.11 476.76 214.65 476.76 216.35C476.76 218.01 476.48 219.52 475.92 220.88C475.36 222.24 474.58 223.41 473.58 224.39C472.58 225.37 471.39 226.14 470.01 226.7C468.63 227.24 467.11 227.52 465.45 227.54C463.81 227.54 462.3 227.28 460.92 226.76C459.56 226.22 458.38 225.47 457.38 224.51C456.4 223.53 455.63 222.36 455.07 221C454.51 219.64 454.23 218.13 454.23 216.47ZM458.19 216.23C458.19 217.37 458.36 218.42 458.7 219.38C459.06 220.34 459.56 221.17 460.2 221.87C460.84 222.57 461.6 223.12 462.48 223.52C463.38 223.92 464.38 224.12 465.48 224.12C466.58 224.12 467.58 223.92 468.48 223.52C469.38 223.12 470.15 222.57 470.79 221.87C471.43 221.17 471.92 220.34 472.26 219.38C472.62 218.42 472.8 217.37 472.8 216.23C472.8 215.17 472.62 214.18 472.26 213.26C471.92 212.34 471.43 211.54 470.79 210.86C470.15 210.16 469.38 209.62 468.48 209.24C467.58 208.84 466.58 208.64 465.48 208.64C464.38 208.64 463.38 208.84 462.48 209.24C461.6 209.62 460.84 210.16 460.2 210.86C459.56 211.54 459.06 212.34 458.7 213.26C458.36 214.18 458.19 215.17 458.19 216.23ZM477.354 212.6H480.774V214.76H480.834C481.354 213.88 482.054 213.24 482.934 212.84C483.814 212.44 484.764 212.24 485.784 212.24C486.884 212.24 487.874 212.44 488.754 212.84C489.634 213.22 490.384 213.75 491.004 214.43C491.624 215.11 492.094 215.91 492.414 216.83C492.734 217.75 492.894 218.74 492.894 219.8C492.894 220.86 492.724 221.85 492.384 222.77C492.044 223.69 491.564 224.49 490.944 225.17C490.344 225.85 489.614 226.39 488.754 226.79C487.894 227.17 486.954 227.36 485.934 227.36C485.254 227.36 484.654 227.29 484.134 227.15C483.614 227.01 483.154 226.83 482.754 226.61C482.354 226.39 482.014 226.16 481.734 225.92C481.454 225.66 481.224 225.41 481.044 225.17H480.954V233.84H477.354V212.6ZM489.294 219.8C489.294 219.24 489.194 218.7 488.994 218.18C488.814 217.66 488.534 217.2 488.154 216.8C487.794 216.4 487.354 216.08 486.834 215.84C486.314 215.6 485.724 215.48 485.064 215.48C484.404 215.48 483.814 215.6 483.294 215.84C482.774 216.08 482.324 216.4 481.944 216.8C481.584 217.2 481.304 217.66 481.104 218.18C480.924 218.7 480.834 219.24 480.834 219.8C480.834 220.36 480.924 220.9 481.104 221.42C481.304 221.94 481.584 222.4 481.944 222.8C482.324 223.2 482.774 223.52 483.294 223.76C483.814 224 484.404 224.12 485.064 224.12C485.724 224.12 486.314 224 486.834 223.76C487.354 223.52 487.794 223.2 488.154 222.8C488.534 222.4 488.814 221.94 488.994 221.42C489.194 220.9 489.294 220.36 489.294 219.8ZM491.894 215.66V212.6H494.864V208.43H498.464V212.6H502.424V215.66H498.464V221.96C498.464 222.68 498.594 223.25 498.854 223.67C499.134 224.09 499.674 224.3 500.474 224.3C500.794 224.3 501.144 224.27 501.524 224.21C501.904 224.13 502.204 224.01 502.424 223.85V226.88C502.044 227.06 501.574 227.18 501.014 227.24C500.474 227.32 499.994 227.36 499.574 227.36C498.614 227.36 497.824 227.25 497.204 227.03C496.604 226.83 496.124 226.52 495.764 226.1C495.424 225.66 495.184 225.12 495.044 224.48C494.924 223.84 494.864 223.1 494.864 222.26V215.66H491.894ZM502.647 212.6H506.247V227H502.647V212.6ZM502.137 207.71C502.137 207.13 502.347 206.63 502.767 206.21C503.207 205.77 503.757 205.55 504.417 205.55C505.077 205.55 505.627 205.76 506.067 206.18C506.527 206.58 506.757 207.09 506.757 207.71C506.757 208.33 506.527 208.85 506.067 209.27C505.627 209.67 505.077 209.87 504.417 209.87C503.757 209.87 503.207 209.66 502.767 209.24C502.347 208.8 502.137 208.29 502.137 207.71ZM507.553 212.6H510.973V214.85H511.033C511.353 214.17 511.863 213.57 512.563 213.05C513.283 212.51 514.243 212.24 515.443 212.24C517.703 212.24 519.203 213.13 519.943 214.91C520.463 213.99 521.113 213.32 521.893 212.9C522.673 212.46 523.603 212.24 524.683 212.24C525.643 212.24 526.453 212.4 527.113 212.72C527.773 213.04 528.303 213.48 528.703 214.04C529.123 214.6 529.423 215.26 529.603 216.02C529.783 216.76 529.873 217.56 529.873 218.42V227H526.273V218.84C526.273 218.4 526.233 217.98 526.153 217.58C526.073 217.16 525.933 216.8 525.733 216.5C525.533 216.18 525.263 215.93 524.923 215.75C524.583 215.57 524.143 215.48 523.603 215.48C523.043 215.48 522.563 215.59 522.163 215.81C521.783 216.01 521.463 216.29 521.203 216.65C520.963 216.99 520.783 217.39 520.663 217.85C520.563 218.29 520.513 218.74 520.513 219.2V227H516.913V218.42C516.913 217.52 516.723 216.81 516.343 216.29C515.963 215.75 515.333 215.48 514.453 215.48C513.853 215.48 513.343 215.58 512.923 215.78C512.523 215.98 512.183 216.25 511.903 216.59C511.643 216.93 511.453 217.32 511.333 217.76C511.213 218.2 511.153 218.66 511.153 219.14V227H507.553V212.6ZM544.27 227H540.85V224.69H540.79C540.45 225.41 539.93 226.04 539.23 226.58C538.53 227.1 537.58 227.36 536.38 227.36C535.42 227.36 534.6 227.21 533.92 226.91C533.26 226.59 532.72 226.17 532.3 225.65C531.88 225.11 531.58 224.5 531.4 223.82C531.22 223.14 531.13 222.43 531.13 221.69V212.6H534.73V219.89C534.73 220.29 534.75 220.74 534.79 221.24C534.83 221.72 534.93 222.18 535.09 222.62C535.27 223.04 535.53 223.4 535.87 223.7C536.23 223.98 536.73 224.12 537.37 224.12C537.97 224.12 538.47 224.02 538.87 223.82C539.29 223.62 539.63 223.35 539.89 223.01C540.17 222.67 540.37 222.28 540.49 221.84C540.61 221.4 540.67 220.94 540.67 220.46V212.6H544.27V227ZM553.36 216.59C552.66 215.61 551.72 215.12 550.54 215.12C550.06 215.12 549.59 215.24 549.13 215.48C548.67 215.72 548.44 216.11 548.44 216.65C548.44 217.09 548.63 217.41 549.01 217.61C549.39 217.81 549.87 217.98 550.45 218.12C551.03 218.26 551.65 218.41 552.31 218.57C552.99 218.71 553.62 218.94 554.2 219.26C554.78 219.56 555.26 219.98 555.64 220.52C556.02 221.06 556.21 221.8 556.21 222.74C556.21 223.6 556.02 224.33 555.64 224.93C555.28 225.51 554.8 225.98 554.2 226.34C553.62 226.7 552.96 226.96 552.22 227.12C551.48 227.28 550.74 227.36 550 227.36C548.88 227.36 547.85 227.2 546.91 226.88C545.97 226.56 545.13 225.98 544.39 225.14L546.79 222.89C547.25 223.41 547.74 223.84 548.26 224.18C548.8 224.5 549.45 224.66 550.21 224.66C550.47 224.66 550.74 224.63 551.02 224.57C551.3 224.51 551.56 224.41 551.8 224.27C552.04 224.13 552.23 223.96 552.37 223.76C552.53 223.54 552.61 223.29 552.61 223.01C552.61 222.51 552.42 222.14 552.04 221.9C551.66 221.66 551.18 221.47 550.6 221.33C550.02 221.17 549.39 221.03 548.71 220.91C548.05 220.77 547.43 220.56 546.85 220.28C546.27 219.98 545.79 219.57 545.41 219.05C545.03 218.53 544.84 217.81 544.84 216.89C544.84 216.09 545 215.4 545.32 214.82C545.66 214.22 546.1 213.73 546.64 213.35C547.18 212.97 547.8 212.69 548.5 212.51C549.2 212.33 549.91 212.24 550.63 212.24C551.59 212.24 552.54 212.41 553.48 212.75C554.42 213.07 555.18 213.63 555.76 214.43L553.36 216.59ZM556.334 224.9C556.334 224.26 556.564 223.71 557.024 223.25C557.504 222.79 558.074 222.56 558.734 222.56C559.374 222.56 559.934 222.78 560.414 223.22C560.894 223.66 561.134 224.2 561.134 224.84C561.134 225.48 560.894 226.03 560.414 226.49C559.954 226.95 559.394 227.18 558.734 227.18C558.414 227.18 558.104 227.12 557.804 227C557.524 226.88 557.274 226.72 557.054 226.52C556.834 226.32 556.654 226.08 556.514 225.8C556.394 225.52 556.334 225.22 556.334 224.9Z" fill="#ECFBFF"/>
<rect x="422.874" y="373.659" width="64.2952" height="114.549" rx="12" transform="rotate(-90 422.874 373.659)" fill="#C5F2FD"/>
<rect x="431.742" y="366.292" width="49.5147" height="90.161" rx="6" transform="rotate(-90 431.742 366.292)" fill="#95EAFF"/>
<rect x="527" y="356" width="26" height="3" rx="1.5" transform="rotate(-90 527 356)" fill="#95EAFF"/>
<path d="M459.64 341.96C459.64 339.693 460.013 337.64 460.76 335.8C461.507 333.933 462.533 332.347 463.84 331.04C465.173 329.733 466.747 328.733 468.56 328.04C470.4 327.32 472.413 326.96 474.6 326.96C476.813 326.933 478.84 327.267 480.68 327.96C482.52 328.627 484.107 329.613 485.44 330.92C486.773 332.227 487.813 333.8 488.56 335.64C489.307 337.48 489.68 339.533 489.68 341.8C489.68 344.013 489.307 346.027 488.56 347.84C487.813 349.653 486.773 351.213 485.44 352.52C484.107 353.827 482.52 354.853 480.68 355.6C478.84 356.32 476.813 356.693 474.6 356.72C472.413 356.72 470.4 356.373 468.56 355.68C466.747 354.96 465.173 353.96 463.84 352.68C462.533 351.373 461.507 349.813 460.76 348C460.013 346.187 459.64 344.173 459.64 341.96ZM464.92 341.64C464.92 343.16 465.147 344.56 465.6 345.84C466.08 347.12 466.747 348.227 467.6 349.16C468.453 350.093 469.467 350.827 470.64 351.36C471.84 351.893 473.173 352.16 474.64 352.16C476.107 352.16 477.44 351.893 478.64 351.36C479.84 350.827 480.867 350.093 481.72 349.16C482.573 348.227 483.227 347.12 483.68 345.84C484.16 344.56 484.4 343.16 484.4 341.64C484.4 340.227 484.16 338.907 483.68 337.68C483.227 336.453 482.573 335.387 481.72 334.48C480.867 333.547 479.84 332.827 478.64 332.32C477.44 331.787 476.107 331.52 474.64 331.52C473.173 331.52 471.84 331.787 470.64 332.32C469.467 332.827 468.453 333.547 467.6 334.48C466.747 335.387 466.08 336.453 465.6 337.68C465.147 338.907 464.92 340.227 464.92 341.64ZM491.364 353.2C491.364 352.347 491.67 351.613 492.284 351C492.924 350.387 493.684 350.08 494.564 350.08C495.417 350.08 496.164 350.373 496.804 350.96C497.444 351.547 497.764 352.267 497.764 353.12C497.764 353.973 497.444 354.707 496.804 355.32C496.19 355.933 495.444 356.24 494.564 356.24C494.137 356.24 493.724 356.16 493.324 356C492.95 355.84 492.617 355.627 492.324 355.36C492.03 355.093 491.79 354.773 491.604 354.4C491.444 354.027 491.364 353.627 491.364 353.2Z" fill="#ECFBFF"/>
<g filter="url(#filter2_d)">
<rect x="37" y="404" width="314" height="14" rx="7" fill="white"/>
</g>
<rect x="459.187" y="75.2666" width="167.813" height="58" rx="29" fill="#BCF2FF"/>
<circle opacity="0.96" cx="547.347" cy="79.1333" r="54.1333" fill="#CDF5FF"/>
<circle opacity="0.71" cx="491.28" cy="94.9865" r="38.28" fill="#95EAFF"/>
</g>
<defs>
<filter id="filter0_d" x="372" y="118" width="283" height="222.925" filterUnits="userSpaceOnUse" color-interpolation-filters="sRGB">
<feFlood flood-opacity="0" result="BackgroundImageFix"/>
<feColorMatrix in="SourceAlpha" type="matrix" values="0 0 0 0 0 0 0 0 0 0 0 0 0 0 0 0 0 0 127 0"/>
<feOffset dy="12"/>
<feGaussianBlur stdDeviation="23"/>
<feColorMatrix type="matrix" values="0 0 0 0 0 0 0 0 0 0 0 0 0 0 0 0 0 0 0.1 0"/>
<feBlend mode="normal" in2="BackgroundImageFix" result="effect1_dropShadow"/>
<feBlend mode="normal" in="SourceGraphic" in2="effect1_dropShadow" result="shape"/>
</filter>
<filter id="filter1_d" x="-33" y="63.2812" width="453" height="334.326" filterUnits="userSpaceOnUse" color-interpolation-filters="sRGB">
<feFlood flood-opacity="0" result="BackgroundImageFix"/>
<feColorMatrix in="SourceAlpha" type="matrix" values="0 0 0 0 0 0 0 0 0 0 0 0 0 0 0 0 0 0 127 0"/>
<feOffset dy="12"/>
<feGaussianBlur stdDeviation="23"/>
<feColorMatrix type="matrix" values="0 0 0 0 0 0 0 0 0 0 0 0 0 0 0 0 0 0 0.1 0"/>
<feBlend mode="normal" in2="BackgroundImageFix" result="effect1_dropShadow"/>
<feBlend mode="normal" in="SourceGraphic" in2="effect1_dropShadow" result="shape"/>
</filter>
<filter id="filter2_d" x="-9" y="370" width="406" height="106" filterUnits="userSpaceOnUse" color-interpolation-filters="sRGB">
<feFlood flood-opacity="0" result="BackgroundImageFix"/>
<feColorMatrix in="SourceAlpha" type="matrix" values="0 0 0 0 0 0 0 0 0 0 0 0 0 0 0 0 0 0 127 0"/>
<feOffset dy="12"/>
<feGaussianBlur stdDeviation="23"/>
<feColorMatrix type="matrix" values="0 0 0 0 0 0 0 0 0 0 0 0 0 0 0 0 0 0 0.1 0"/>
<feBlend mode="normal" in2="BackgroundImageFix" result="effect1_dropShadow"/>
<feBlend mode="normal" in="SourceGraphic" in2="effect1_dropShadow" result="shape"/>
</filter>
<clipPath id="clip0">
<rect width="672" height="428" fill="white"/>
</clipPath>
</defs>
</svg>
