<svg width="440" height="330" viewBox="0 0 440 330" fill="none" xmlns="http://www.w3.org/2000/svg">
<rect x="178.192" y="46.5656" width="74.1919" height="36.5252" rx="4" fill="#25B6D5"/>
<rect x="104" y="166.414" width="83.3232" height="101.586" rx="7" fill="#E1EFED"/>
<rect x="178.192" y="42" width="74.1919" height="36.5252" rx="4" fill="#C2F0FA"/>
<g clip-path="url(#clip0)">
<path d="M224.946 50.6376C222.38 48.4513 218.565 48.8446 216.21 51.2743L215.288 52.2247L214.365 51.2743C212.015 48.8446 208.195 48.4513 205.63 50.6376C202.69 53.1469 202.535 57.6506 205.166 60.3706L214.225 69.7244C214.81 70.3283 215.761 70.3283 216.346 69.7244L225.405 60.3706C228.04 57.6506 227.886 53.1469 224.946 50.6376Z" fill="#FF6D6D"/>
<ellipse cx="221.566" cy="53.4142" rx="2.28283" ry="2.28283" fill="#FF8B8B"/>
</g>
<rect x="256.95" y="173.263" width="82.1818" height="94.7374" rx="7" fill="#E8F3F1"/>
<path d="M153.081 95.6565C153.081 91.2382 156.663 87.6565 161.081 87.6565H268.354C272.772 87.6565 276.354 91.2382 276.354 95.6565V268H161.081C156.663 268 153.081 264.418 153.081 260V95.6565Z" fill="#F3F9F8"/>
<rect x="153.081" y="87.6565" width="39.9495" height="180.343" rx="8" fill="#E8F3F1"/>
<rect x="169.061" y="116.192" width="23.9697" height="26.2525" rx="4" fill="#C2F0FA"/>
<rect x="203.303" y="116.192" width="23.9697" height="26.2525" rx="4" fill="#C2F0FA"/>
<rect x="237.545" y="116.192" width="23.9697" height="26.2525" rx="4" fill="#C2F0FA"/>
<rect x="169.061" y="156.141" width="23.9697" height="26.2525" rx="4" fill="#C2F0FA"/>
<rect x="203.303" y="156.141" width="23.9697" height="26.2525" rx="4" fill="#C2F0FA"/>
<rect x="237.545" y="156.141" width="23.9697" height="26.2525" rx="4" fill="#C2F0FA"/>
<rect x="286.626" y="191.525" width="17.1212" height="20.5455" rx="4" fill="#C2F0FA"/>
<rect x="286.626" y="220.061" width="41.0909" height="15.9798" rx="4" fill="#C2F0FA"/>
<path d="M193.03 236.616C193.03 234.407 194.821 232.616 197.03 232.616H215.859V268H197.03C194.821 268 193.03 266.209 193.03 264V236.616Z" fill="#C2F0FA"/>
<path d="M221.565 232.616H243.818C246.027 232.616 247.818 234.407 247.818 236.616V264C247.818 266.209 246.027 268 243.818 268H221.565V232.616Z" fill="#C2F0FA"/>
<rect x="116.556" y="183.535" width="25.1111" height="15.9798" rx="4" fill="#C2F0FA"/>
<rect x="116.556" y="209.788" width="25.1111" height="15.9798" rx="4" fill="#C2F0FA"/>
<rect x="311.737" y="191.525" width="17.1212" height="20.5455" rx="4" fill="#C2F0FA"/>
<defs>
<clipPath id="clip0">
<rect width="23.9697" height="23.9697" fill="white" transform="translate(203.303 47.707)"/>
</clipPath>
</defs>
</svg>
