<svg width="772" height="596" viewBox="0 0 772 596" fill="none" xmlns="http://www.w3.org/2000/svg">
<g clip-path="url(#clip0)">
<rect x="254" y="465" width="87" height="112" rx="18" fill="#C5F2FD"/>
<rect x="618.2" y="468.356" width="87" height="155" rx="18" transform="rotate(90.1317 618.2 468.356)" fill="#C5F2FD"/>
<rect x="606.177" y="478.329" width="67" height="122" rx="8" transform="rotate(90.1317 606.177 478.329)" fill="#95EAFF"/>
<g filter="url(#filter0_d)">
<rect x="18" y="306" width="182" height="246" rx="18" fill="#95EAFF"/>
</g>
<rect x="124" y="327" width="56" height="56" rx="28" fill="#C5F2FD"/>
<rect x="36" y="411" width="97" height="8" rx="4" fill="#C5F2FD"/>
<rect x="36" y="428" width="73" height="8" rx="4" fill="#C5F2FD"/>
<rect x="36" y="446" width="53" height="7" rx="3.5" fill="#C5F2FD"/>
<rect x="36" y="490" width="107" height="27" rx="6" fill="#C5F2FD"/>
<g filter="url(#filter1_d)">
<rect x="72" y="85" width="182" height="180" rx="18" fill="#95EAFF"/>
</g>
<rect x="90" y="124" width="97" height="8" rx="4" fill="#C5F2FD"/>
<rect x="90" y="141" width="73" height="8" rx="4" fill="#C5F2FD"/>
<rect x="90" y="159" width="53" height="7" rx="3.5" fill="#C5F2FD"/>
<rect x="90" y="203" width="107" height="27" rx="6" fill="#C5F2FD"/>
<g filter="url(#filter2_d)">
<rect x="283" y="32" width="443" height="383" rx="38" fill="white"/>
</g>
<path d="M586.575 205.525C586.575 198.735 592.08 193.23 598.87 193.23H635.944C642.734 193.23 648.239 198.735 648.239 205.525V247.779C648.239 264.807 634.435 278.611 617.407 278.611C600.379 278.611 586.575 264.807 586.575 247.779V205.525Z" fill="#FFE4AF"/>
<path d="M597.248 246.164C597.248 240.945 603.191 237.951 607.384 241.058L609.26 242.448C614.801 246.553 622.436 246.312 627.707 241.866L628.342 241.329C631.989 238.254 637.566 240.846 637.566 245.616C637.566 253.618 631.93 260.513 624.088 262.104L621.761 262.576C619.748 262.985 617.675 263.01 615.653 262.649L610.249 261.686C602.726 260.346 597.248 253.804 597.248 246.164Z" fill="#ECBB9F"/>
<rect x="624.522" y="212.204" width="5.9292" height="18.9735" rx="2.9646" fill="#ECD29F"/>
<rect x="603.177" y="212.204" width="5.9292" height="18.9735" rx="2.9646" fill="#ECD29F"/>
<rect x="583.018" y="202.717" width="5.9292" height="24.9027" rx="2.9646" fill="#A07E66"/>
<rect x="583.018" y="202.717" width="10.6726" height="15.4159" rx="5.33628" fill="#A07E66"/>
<rect x="639.938" y="202.717" width="10.6726" height="15.4159" rx="5.33628" fill="#A07E66"/>
<rect x="643.496" y="202.717" width="8.30089" height="24.9027" rx="4.15044" fill="#A07E66"/>
<path d="M551 373.478H685V326.327C685 313.073 674.255 302.327 661 302.327H575C561.745 302.327 551 313.073 551 326.327V373.478Z" fill="#A1FDF2"/>
<path d="M594.876 292.879C594.876 290.238 597.017 288.097 599.657 288.097H636.343C638.983 288.097 641.124 290.238 641.124 292.879V298.177C641.124 310.948 630.771 321.301 618 321.301C605.229 321.301 594.876 310.948 594.876 298.177V292.879Z" fill="#A5EFE6"/>
<path d="M583.018 197C583.018 187.059 591.077 179 601.018 179H633.796C643.738 179 651.796 187.059 651.796 197V206.274H583.018V197Z" fill="#A5EFE6"/>
<path d="M551 373.478H594.876V302.327H575C561.745 302.327 551 313.073 551 326.327V373.478Z" fill="#F3F3F3"/>
<path d="M685 373.478H641.124V302.327H661C674.255 302.327 685 313.073 685 326.327V373.478Z" fill="#F3F3F3"/>
<rect x="579.46" y="302.327" width="4.74336" height="34.3894" fill="#303030"/>
<circle cx="581.832" cy="339.088" r="7.11504" fill="#303030"/>
<circle cx="581.832" cy="339.088" r="3.55752" fill="white"/>
<rect x="654.168" y="302.327" width="4.74336" height="21.3451" fill="#303030"/>
<rect x="644.681" y="320.115" width="23.7168" height="30.8319" rx="11.8584" fill="#303030"/>
<rect x="648.239" y="323.673" width="16.6018" height="21.3451" rx="8.30089" fill="#F3F3F3"/>
<rect x="642.31" y="336.717" width="29.646" height="17.7876" fill="#F3F3F3"/>
<rect x="664.841" y="331.973" width="3.55752" height="11.8584" rx="1.77876" fill="#303030"/>
<rect x="644.681" y="331.973" width="3.55752" height="11.8584" rx="1.77876" fill="#303030"/>
<rect x="321" y="287" width="20" height="82" rx="10" fill="#FAF7F2"/>
<rect x="357" y="319" width="20" height="50" rx="10" fill="#FAF7F2"/>
<rect x="467" y="335" width="35" height="35" rx="17.5" fill="#F7ECDA"/>
<rect x="395" y="247" width="20" height="122" rx="10" fill="#FAF7F2"/>
<rect x="431" y="281" width="20" height="88" rx="10" fill="#FAF7F2"/>
<rect x="323" y="80" width="289" height="31" rx="15.5" fill="#FAF7F2"/>
<rect x="323" y="129" width="185" height="12" rx="6" fill="#FAF7F2"/>
<rect x="323" y="154" width="220" height="12" rx="6" fill="#FAF7F2"/>
<rect x="323" y="179" width="89" height="12" rx="6" fill="#FAF7F2"/>
</g>
<defs>
<filter id="filter0_d" x="-28" y="272" width="274" height="338" filterUnits="userSpaceOnUse" color-interpolation-filters="sRGB">
<feFlood flood-opacity="0" result="BackgroundImageFix"/>
<feColorMatrix in="SourceAlpha" type="matrix" values="0 0 0 0 0 0 0 0 0 0 0 0 0 0 0 0 0 0 127 0"/>
<feOffset dy="12"/>
<feGaussianBlur stdDeviation="23"/>
<feColorMatrix type="matrix" values="0 0 0 0 0 0 0 0 0 0 0 0 0 0 0 0 0 0 0.1 0"/>
<feBlend mode="normal" in2="BackgroundImageFix" result="effect1_dropShadow"/>
<feBlend mode="normal" in="SourceGraphic" in2="effect1_dropShadow" result="shape"/>
</filter>
<filter id="filter1_d" x="26" y="51" width="274" height="272" filterUnits="userSpaceOnUse" color-interpolation-filters="sRGB">
<feFlood flood-opacity="0" result="BackgroundImageFix"/>
<feColorMatrix in="SourceAlpha" type="matrix" values="0 0 0 0 0 0 0 0 0 0 0 0 0 0 0 0 0 0 127 0"/>
<feOffset dy="12"/>
<feGaussianBlur stdDeviation="23"/>
<feColorMatrix type="matrix" values="0 0 0 0 0 0 0 0 0 0 0 0 0 0 0 0 0 0 0.1 0"/>
<feBlend mode="normal" in2="BackgroundImageFix" result="effect1_dropShadow"/>
<feBlend mode="normal" in="SourceGraphic" in2="effect1_dropShadow" result="shape"/>
</filter>
<filter id="filter2_d" x="237" y="-2" width="535" height="475" filterUnits="userSpaceOnUse" color-interpolation-filters="sRGB">
<feFlood flood-opacity="0" result="BackgroundImageFix"/>
<feColorMatrix in="SourceAlpha" type="matrix" values="0 0 0 0 0 0 0 0 0 0 0 0 0 0 0 0 0 0 127 0"/>
<feOffset dy="12"/>
<feGaussianBlur stdDeviation="23"/>
<feColorMatrix type="matrix" values="0 0 0 0 0 0 0 0 0 0 0 0 0 0 0 0 0 0 0.1 0"/>
<feBlend mode="normal" in2="BackgroundImageFix" result="effect1_dropShadow"/>
<feBlend mode="normal" in="SourceGraphic" in2="effect1_dropShadow" result="shape"/>
</filter>
<clipPath id="clip0">
<rect width="772" height="596" fill="white"/>
</clipPath>
</defs>
</svg>
