<svg width="1084" height="624" viewBox="0 0 1084 624" fill="none" xmlns="http://www.w3.org/2000/svg">
<g clip-path="url(#clip0)">
<path fill-rule="evenodd" clip-rule="evenodd" d="M694.5 552C799.158 552 884 467.158 884 362.5C884 257.842 799.158 173 694.5 173C589.842 173 505 257.842 505 362.5C505 467.158 589.842 552 694.5 552Z" fill="#FAF7F2"/>
<g filter="url(#filter0_d)">
<rect x="286" y="25" width="593" height="383" rx="26" fill="white"/>
</g>
<rect x="300" y="81" width="560" height="310" rx="24" fill="#95EAFF"/>
<rect x="776" y="429" width="100" height="182" rx="20" fill="#C5F2FD"/>
<rect x="355" y="162" width="100" height="182" rx="20" fill="#C5F2FD"/>
<rect x="505" y="123" width="122" height="142" rx="20" fill="#C5F2FD"/>
<rect x="785" y="442" width="82" height="149" rx="13" fill="#E9F7FF"/>
<circle cx="323" cy="55" r="10" fill="#FF8282"/>
<circle cx="441" cy="55" r="8" fill="#70E3FF"/>
<circle cx="478" cy="55" r="5" fill="#70E3FF"/>
<circle cx="461" cy="55" r="6" fill="#70E3FF"/>
<circle cx="355" cy="55" r="10" fill="#FFDC82"/>
<circle cx="387" cy="55" r="10" fill="#95FFCC"/>
<path d="M591.501 329.589C591.501 326.132 592.07 323.001 593.209 320.195C594.348 317.348 595.913 314.929 597.906 312.936C599.939 310.943 602.339 309.418 605.104 308.361C607.91 307.263 610.98 306.714 614.315 306.714C617.69 306.673 620.781 307.182 623.587 308.239C626.393 309.256 628.813 310.76 630.846 312.753C632.879 314.746 634.465 317.145 635.604 319.951C636.743 322.757 637.312 325.888 637.312 329.345C637.312 332.72 636.743 335.791 635.604 338.556C634.465 341.321 632.879 343.7 630.846 345.693C628.813 347.686 626.393 349.251 623.587 350.39C620.781 351.488 617.69 352.057 614.315 352.098C610.98 352.098 607.91 351.569 605.104 350.512C602.339 349.414 599.939 347.889 597.906 345.937C595.913 343.944 594.348 341.565 593.209 338.8C592.07 336.035 591.501 332.964 591.501 329.589ZM599.553 329.101C599.553 331.419 599.899 333.554 600.59 335.506C601.322 337.458 602.339 339.146 603.64 340.569C604.941 341.992 606.487 343.111 608.276 343.924C610.106 344.737 612.139 345.144 614.376 345.144C616.613 345.144 618.646 344.737 620.476 343.924C622.306 343.111 623.872 341.992 625.173 340.569C626.474 339.146 627.471 337.458 628.162 335.506C628.894 333.554 629.26 331.419 629.26 329.101C629.26 326.946 628.894 324.933 628.162 323.062C627.471 321.191 626.474 319.565 625.173 318.182C623.872 316.759 622.306 315.661 620.476 314.888C618.646 314.075 616.613 313.668 614.376 313.668C612.139 313.668 610.106 314.075 608.276 314.888C606.487 315.661 604.941 316.759 603.64 318.182C602.339 319.565 601.322 321.191 600.59 323.062C599.899 324.933 599.553 326.946 599.553 329.101ZM641.285 321.72H648.239V326.112H648.361C649.418 324.323 650.842 323.021 652.631 322.208C654.42 321.395 656.352 320.988 658.426 320.988C660.663 320.988 662.676 321.395 664.465 322.208C666.254 322.981 667.779 324.058 669.04 325.441C670.301 326.824 671.256 328.45 671.907 330.321C672.558 332.192 672.883 334.205 672.883 336.36C672.883 338.515 672.537 340.528 671.846 342.399C671.155 344.27 670.179 345.896 668.918 347.279C667.698 348.662 666.214 349.76 664.465 350.573C662.716 351.346 660.805 351.732 658.731 351.732C657.348 351.732 656.128 351.59 655.071 351.305C654.014 351.02 653.078 350.654 652.265 350.207C651.452 349.76 650.76 349.292 650.191 348.804C649.622 348.275 649.154 347.767 648.788 347.279H648.605V364.908H641.285V321.72ZM665.563 336.36C665.563 335.221 665.36 334.123 664.953 333.066C664.587 332.009 664.018 331.073 663.245 330.26C662.513 329.447 661.618 328.796 660.561 328.308C659.504 327.82 658.304 327.576 656.962 327.576C655.62 327.576 654.42 327.82 653.363 328.308C652.306 328.796 651.391 329.447 650.618 330.26C649.886 331.073 649.317 332.009 648.91 333.066C648.544 334.123 648.361 335.221 648.361 336.36C648.361 337.499 648.544 338.597 648.91 339.654C649.317 340.711 649.886 341.647 650.618 342.46C651.391 343.273 652.306 343.924 653.363 344.412C654.42 344.9 655.62 345.144 656.962 345.144C658.304 345.144 659.504 344.9 660.561 344.412C661.618 343.924 662.513 343.273 663.245 342.46C664.018 341.647 664.587 340.711 664.953 339.654C665.36 338.597 665.563 337.499 665.563 336.36ZM673.615 327.942V321.72H679.654V313.241H686.974V321.72H695.026V327.942H686.974V340.752C686.974 342.216 687.239 343.375 687.767 344.229C688.337 345.083 689.435 345.51 691.061 345.51C691.712 345.51 692.424 345.449 693.196 345.327C693.969 345.164 694.579 344.92 695.026 344.595V350.756C694.254 351.122 693.298 351.366 692.159 351.488C691.061 351.651 690.085 351.732 689.231 351.732C687.279 351.732 685.673 351.508 684.412 351.061C683.192 350.654 682.216 350.024 681.484 349.17C680.793 348.275 680.305 347.177 680.02 345.876C679.776 344.575 679.654 343.07 679.654 341.362V327.942H673.615ZM698.245 321.72H705.565V351H698.245V321.72ZM697.208 311.777C697.208 310.598 697.635 309.581 698.489 308.727C699.384 307.832 700.502 307.385 701.844 307.385C703.186 307.385 704.305 307.812 705.199 308.666C706.135 309.479 706.602 310.516 706.602 311.777C706.602 313.038 706.135 314.095 705.199 314.949C704.305 315.762 703.186 316.169 701.844 316.169C700.502 316.169 699.384 315.742 698.489 314.888C697.635 313.993 697.208 312.956 697.208 311.777ZM710.987 321.72H717.941V326.295H718.063C718.714 324.912 719.751 323.692 721.174 322.635C722.638 321.537 724.59 320.988 727.03 320.988C731.626 320.988 734.676 322.798 736.18 326.417C737.238 324.546 738.559 323.184 740.145 322.33C741.731 321.435 743.622 320.988 745.818 320.988C747.77 320.988 749.417 321.313 750.759 321.964C752.101 322.615 753.179 323.509 753.992 324.648C754.846 325.787 755.456 327.129 755.822 328.674C756.188 330.179 756.371 331.805 756.371 333.554V351H749.051V334.408C749.051 333.513 748.97 332.659 748.807 331.846C748.645 330.992 748.36 330.26 747.953 329.65C747.547 328.999 746.998 328.491 746.306 328.125C745.615 327.759 744.72 327.576 743.622 327.576C742.484 327.576 741.508 327.8 740.694 328.247C739.922 328.654 739.271 329.223 738.742 329.955C738.254 330.646 737.888 331.46 737.644 332.395C737.441 333.29 737.339 334.205 737.339 335.14V351H730.019V333.554C730.019 331.724 729.633 330.28 728.86 329.223C728.088 328.125 726.807 327.576 725.017 327.576C723.797 327.576 722.76 327.779 721.906 328.186C721.093 328.593 720.402 329.142 719.832 329.833C719.304 330.524 718.917 331.317 718.673 332.212C718.429 333.107 718.307 334.042 718.307 335.018V351H710.987V321.72ZM788.411 351H781.457V346.303H781.335C780.644 347.767 779.586 349.048 778.163 350.146C776.74 351.203 774.808 351.732 772.368 351.732C770.416 351.732 768.749 351.427 767.366 350.817C766.024 350.166 764.926 349.312 764.072 348.255C763.218 347.157 762.608 345.917 762.242 344.534C761.876 343.151 761.693 341.708 761.693 340.203V321.72H769.013V336.543C769.013 337.356 769.054 338.271 769.135 339.288C769.216 340.264 769.42 341.199 769.745 342.094C770.111 342.948 770.64 343.68 771.331 344.29C772.063 344.859 773.08 345.144 774.381 345.144C775.601 345.144 776.618 344.941 777.431 344.534C778.285 344.127 778.976 343.578 779.505 342.887C780.074 342.196 780.481 341.403 780.725 340.508C780.969 339.613 781.091 338.678 781.091 337.702V321.72H788.411V351ZM809.66 329.833C808.237 327.84 806.325 326.844 803.926 326.844C802.95 326.844 801.994 327.088 801.059 327.576C800.124 328.064 799.656 328.857 799.656 329.955C799.656 330.85 800.042 331.5 800.815 331.907C801.588 332.314 802.564 332.659 803.743 332.944C804.922 333.229 806.183 333.534 807.525 333.859C808.908 334.144 810.189 334.611 811.368 335.262C812.547 335.872 813.523 336.726 814.296 337.824C815.069 338.922 815.455 340.427 815.455 342.338C815.455 344.087 815.069 345.571 814.296 346.791C813.564 347.97 812.588 348.926 811.368 349.658C810.189 350.39 808.847 350.919 807.342 351.244C805.837 351.569 804.333 351.732 802.828 351.732C800.551 351.732 798.456 351.407 796.545 350.756C794.634 350.105 792.926 348.926 791.421 347.218L796.301 342.643C797.236 343.7 798.233 344.575 799.29 345.266C800.388 345.917 801.71 346.242 803.255 346.242C803.784 346.242 804.333 346.181 804.902 346.059C805.471 345.937 806 345.734 806.488 345.449C806.976 345.164 807.362 344.819 807.647 344.412C807.972 343.965 808.135 343.456 808.135 342.887C808.135 341.87 807.749 341.118 806.976 340.63C806.203 340.142 805.227 339.756 804.048 339.471C802.869 339.146 801.588 338.861 800.205 338.617C798.863 338.332 797.602 337.905 796.423 337.336C795.244 336.726 794.268 335.892 793.495 334.835C792.722 333.778 792.336 332.314 792.336 330.443C792.336 328.816 792.661 327.413 793.312 326.234C794.003 325.014 794.898 324.018 795.996 323.245C797.094 322.472 798.355 321.903 799.778 321.537C801.201 321.171 802.645 320.988 804.109 320.988C806.061 320.988 807.993 321.334 809.904 322.025C811.815 322.676 813.361 323.814 814.54 325.441L809.66 329.833ZM818.472 346.73C818.472 345.429 818.94 344.31 819.875 343.375C820.851 342.44 822.01 341.972 823.352 341.972C824.653 341.972 825.792 342.419 826.768 343.314C827.744 344.209 828.232 345.307 828.232 346.608C828.232 347.909 827.744 349.028 826.768 349.963C825.833 350.898 824.694 351.366 823.352 351.366C822.701 351.366 822.071 351.244 821.461 351C820.892 350.756 820.383 350.431 819.936 350.024C819.489 349.617 819.123 349.129 818.838 348.56C818.594 347.991 818.472 347.381 818.472 346.73Z" fill="#ECFBFF"/>
<rect x="922.915" y="329.855" width="87" height="155" rx="18" transform="rotate(-0.87977 922.915 329.855)" fill="#C5F2FD"/>
<rect x="933.098" y="341.7" width="67" height="122" rx="8" transform="rotate(-0.87977 933.098 341.7)" fill="#95EAFF"/>
<rect x="35" y="425" width="87" height="22" rx="11" fill="#BCF2FF"/>
<rect x="11" y="436" width="87" height="22" rx="11" fill="#BCF2FF"/>
<rect x="959" y="194" width="87" height="22" rx="11" fill="#BCF2FF"/>
<rect x="876" y="209" width="191" height="22" rx="11" fill="#BCF2FF"/>
<rect x="40" y="285" width="217" height="75" rx="37.5" fill="#BCF2FF"/>
<circle opacity="0.96" cx="154" cy="290" r="70" fill="#CDF5FF"/>
<circle opacity="0.71" cx="81.5" cy="310.5" r="49.5" fill="#95EAFF"/>
</g>
<defs>
<filter id="filter0_d" x="240" y="-9" width="685" height="475" filterUnits="userSpaceOnUse" color-interpolation-filters="sRGB">
<feFlood flood-opacity="0" result="BackgroundImageFix"/>
<feColorMatrix in="SourceAlpha" type="matrix" values="0 0 0 0 0 0 0 0 0 0 0 0 0 0 0 0 0 0 127 0"/>
<feOffset dy="12"/>
<feGaussianBlur stdDeviation="23"/>
<feColorMatrix type="matrix" values="0 0 0 0 0 0 0 0 0 0 0 0 0 0 0 0 0 0 0.1 0"/>
<feBlend mode="normal" in2="BackgroundImageFix" result="effect1_dropShadow"/>
<feBlend mode="normal" in="SourceGraphic" in2="effect1_dropShadow" result="shape"/>
</filter>
<clipPath id="clip0">
<rect width="1084" height="624" fill="white"/>
</clipPath>
</defs>
</svg>
