<svg width="342" height="185" viewBox="0 0 342 185" fill="none" xmlns="http://www.w3.org/2000/svg">
<path d="M141.023 48.7672C141.919 48.2642 142.93 48 143.958 48H227.358C228.613 48 229.837 48.394 230.857 49.1264C235.592 52.5265 233.187 60 227.358 60H143.958C137.78 60 135.635 51.7899 141.023 48.7672Z" fill="#D9E9E5"/>
<rect x="37" y="98" width="73" height="59" rx="7" fill="#E8F3F1"/>
<rect x="53" y="120" width="44" height="37" rx="7" fill="#E1EFED"/>
<rect x="261" y="82" width="44" height="34" rx="4" fill="#3B725E"/>
<g clip-path="url(#clip0)">
<path d="M291.962 92.5675C289.714 90.652 286.371 90.9966 284.308 93.1253L283.5 93.9579L282.692 93.1253C280.633 90.9966 277.286 90.652 275.038 92.5675C272.463 94.7659 272.327 98.7116 274.632 101.095L282.569 109.29C283.082 109.819 283.914 109.819 284.427 109.29L292.363 101.095C294.673 98.7116 294.537 94.7659 291.962 92.5675Z" fill="white"/>
<circle cx="289" cy="96" r="2" fill="#D5D5D5"/>
</g>
<path d="M153.631 37.8869C154.467 37.3094 155.459 37 156.474 37H217.673C218.893 37 220.071 37.4465 220.986 38.2552L222.116 39.2552C225.564 42.3055 223.406 48 218.803 48H155.027C150.124 48 148.151 41.6751 152.185 38.8869L153.631 37.8869Z" fill="#E8F3F1"/>
<rect x="226" y="72" width="79" height="6" rx="3" fill="#615852"/>
<rect x="121" y="57" width="129" height="100" rx="7" fill="#E8F3F1"/>
<path d="M162 120C162 117.791 163.791 116 166 116H182V157H166C163.791 157 162 155.209 162 153V120Z" fill="#C2F0FA"/>
<path d="M187 116H206C208.209 116 210 117.791 210 120V153C210 155.209 208.209 157 206 157H187V116Z" fill="#C2F0FA"/>
<rect x="135" y="76" width="21" height="23" rx="4" fill="#C2F0FA"/>
<rect x="161" y="76" width="21" height="23" rx="4" fill="#C2F0FA"/>
<rect x="187" y="77" width="45" height="21" rx="4" fill="#C2F0FA"/>
<defs>
<clipPath id="clip0">
<rect width="21" height="21" fill="white" transform="translate(273 90)"/>
</clipPath>
</defs>
</svg>
