<svg width="200" height="155" viewBox="0 0 200 155" fill="none" xmlns="http://www.w3.org/2000/svg">
<rect x="32" y="42" width="58" height="100" rx="6" fill="#95EAFF"/>
<rect x="39" y="55" width="44" height="74" rx="6" fill="#69D6F0"/>
<circle cx="138.5" cy="55.5" r="26.5" fill="#E8E8E8"/>
<rect x="128" y="45" width="4" height="10" rx="2" fill="#C4C4C4"/>
<rect x="144" y="44" width="4" height="10" rx="2" fill="#C4C4C4"/>
<path d="M123 62.8942C123 61.9466 123.909 61.2639 124.819 61.5281L126.902 62.1329C134.487 64.3348 142.532 64.4004 150.151 62.3224L153.588 61.385C154.299 61.1911 155 61.7263 155 62.4632C155 66.5589 152.98 70.4077 149.62 72.7496C142.998 77.3652 134.132 77.259 127.649 72.4492L127.09 72.0348C124.517 70.1257 123 67.1108 123 63.9067V62.8942Z" fill="#C4C4C4"/>
</svg>
