<svg width="760" height="348" viewBox="0 0 760 348" fill="none" xmlns="http://www.w3.org/2000/svg">
<path d="M310 108H421.532C428.439 108 434.944 111.244 439.101 116.759L470.696 158.683C478.948 169.633 479.307 184.624 471.587 195.957L444.645 235.511C440.175 242.073 432.749 246 424.809 246H310V108Z" fill="#95EAFF"/>
<path d="M259 108H370.532C377.439 108 383.944 111.244 388.101 116.759L419.696 158.683C427.948 169.633 428.307 184.624 420.587 195.957L393.645 235.511C389.175 242.073 381.749 246 373.809 246H259V108Z" fill="#C5F2FD"/>
<path fill-rule="evenodd" clip-rule="evenodd" d="M602.5 287C663.527 287 713 237.527 713 176.5C713 115.473 663.527 66 602.5 66C541.473 66 492 115.473 492 176.5C492 237.527 541.473 287 602.5 287Z" fill="#FAF7F2"/>
<path fill-rule="evenodd" clip-rule="evenodd" d="M152.5 302C221.812 302 278 245.812 278 176.5C278 107.188 221.812 51 152.5 51C83.1883 51 27 107.188 27 176.5C27 245.812 83.1883 302 152.5 302Z" fill="#FAF7F2"/>
<path d="M200 108H311.532C318.439 108 324.944 111.244 329.101 116.759L360.696 158.683C368.948 169.633 369.307 184.624 361.587 195.957L334.645 235.511C330.175 242.073 322.749 246 314.809 246H200V108Z" fill="#95EAFF"/>
<rect x="526" y="138" width="154" height="104" rx="7" fill="#F3F3F3"/>
<path d="M191 108H258.848C267.175 108 274.788 112.701 278.517 120.146L300.168 163.362C304.49 171.989 304.688 182.105 300.708 190.895L282.141 231.9C278.254 240.485 269.702 246 260.278 246H191V108Z" fill="#C5F2FD"/>
<rect x="73" y="167" width="118" height="95" rx="7" fill="white"/>
<rect x="67" y="104" width="31" height="53" rx="7" fill="white"/>
<rect x="526" y="125" width="154" height="104" rx="7" fill="white"/>
<path d="M184 166C187.866 166 191 169.134 191 173V248H107C103.134 248 100 244.866 100 241V166H184Z" fill="#F2F2F2"/>
<rect x="110" y="89" width="108" height="147" rx="7" fill="white"/>
<circle cx="602.5" cy="176.5" r="38.5" fill="#95EAFF"/>
<circle cx="602.5" cy="176.5" r="29.5" fill="white"/>
<path fill-rule="evenodd" clip-rule="evenodd" d="M592.404 190.005C592.197 189.818 592.005 189.602 591.833 189.359L583.127 177.041C581.838 175.218 582.143 172.533 583.807 171.045C585.471 169.557 587.865 169.828 589.154 171.652L595.405 180.495L615.696 162.302C617.486 160.697 620.064 160.987 621.454 162.948C622.844 164.91 622.52 167.802 620.73 169.407L597.025 190.66C595.621 191.918 593.599 191.691 592.509 190.153L592.404 190.005Z" fill="#95EAFF"/>
<rect x="129" y="112" width="71" height="11" rx="5.5" fill="#F4F4F4"/>
<rect x="129" y="131" width="71" height="11" rx="5.5" fill="#F4F4F4"/>
<rect x="129" y="150" width="43" height="11" rx="5.5" fill="#F4F4F4"/>
<rect x="129" y="173" width="43" height="45" rx="7" fill="#F4F4F4"/>
</svg>
